<?xml version="1.0" encoding="utf-8"?>
<!-- Generator: Adobe Illustrator 25.4.1, SVG Export Plug-In . SVG Version: 6.00 Build 0)  -->
<svg version="1.1" id="Layer_1" xmlns="http://www.w3.org/2000/svg" xmlns:xlink="http://www.w3.org/1999/xlink" x="0px" y="0px"
	 viewBox="0 0 311 297.4" style="enable-background:new 0 0 311 297.4;" xml:space="preserve">
<style type="text/css">
	.st0{fill:#353638;}
	.st1{fill:#EA5260;}
	.st2{fill:#515052;}
	.st3{fill:#68686A;}
	.st4{fill:#FFFFFF;stroke:#000000;stroke-width:0.25;stroke-miterlimit:10;}
	.st5{fill:#FFFFFF;}
	.st6{fill:#5A5A59;}
</style>
<path class="st0" d="M-65.2,69.1"/>
<path class="st1" d="M-70,80.6"/>
<path class="st1" d="M-69.5,80.4"/>
<path class="st2" d="M-59.6,166.3"/>
<g>
	<path class="st3" d="M132.5,271c1.2-3.3,2.6-5.9,3.7-7.6c1.1-1.8,1.9-2.8,3-3.7c1.5-1.2,3-1.7,4-2c-1.2-4.2-3.2-11.4-5.3-20.3
		c-3.6-15.1-4.2-20.9-9-44.2c-3.8-18.4-3.8-17-5.3-25.6c-0.5-2.9-2.8-16.5-4.3-35.2c-1-12.5-1.9-23.1-1.3-37.6
		c0.2-4.5,0.8-11.5,2-25.3c1.6-18.8,2.4-22.9,3-25.9c1.4-6.9,3.7-15.1,7.6-24.3c3.5,2.2,7.4,4.8,11.3,8c3.1,2.5,5.9,5,8.3,7.3
		c0.4,0.4,0.7,0.8,1,1.2c1.9,2.1,3.7,4.3,5.6,6.4c3.2-0.9,6-1.4,8-1.7c1.8-0.2,3.3-0.5,5.4-0.4c1.5,0,3.9,0,6.9,0.8
		c1.4,0.4,3.2,0.9,5.3,2c3-4.9,6-8.4,8.3-10.6c3.5-3.5,6.9-5.8,11-8.6c2.7-1.9,5-3.3,6.6-4.3c1.5,2.9,3.6,7.2,5.3,12.6
		c1.2,3.7,1.9,7,3.7,18.6c1.6,10.7,2.4,16,2.8,19.8c0.1,1.8,0.4,8.8,0.8,22.9c0.2,5.8,0.3,9.3,0.1,14.2c-0.1,4.2-0.4,7.6-0.7,11
		c-0.5,6.6-1.1,11.6-1.3,13.6c-2.4,20.5-3.6,30.7-5,39.9c-2.1,13.7-4.1,23.4-7.3,38.9c-3,14.7-5.1,23.2-6,26.9
		c-2,8.2-3.9,15.1-5.3,20.3c2,0.9,3.6,1.9,4.7,2.7c0.7,0.5,1.8,1.3,3,2.7c0.9,1,1.7,1.9,2.3,3.3c0.3,0.8,0.8,2.3,0.7,4.3H132.5z"/>
	<path class="st4" d="M119.4,128c0.2-1.3,0.8-2.2,1.2-3.1c0.8-1.5,1.6-2.5,2.5-3.5c0.8-0.9,2.1-2.3,3.9-3.8c1-0.8,2.4-1.7,5.1-3.5
		c2.6-1.7,3.9-2.6,5.4-3.4c1.3-0.7,1.7-0.9,2.8-1.5c1.6-1,2.8-2,3.7-2.7c0.9-0.8,2-1.6,3.2-2.9c1.2-1.2,1.9-2.2,2.9-3.4
		c1.8-2.3,2.9-4.2,3.8-5.5c0.7-1.1,1.5-2.4,2.4-4.2c0.8-1.6,2-3.8,3-6.8c0.8-2.4,1.5-4.3,1.9-6.9c0.1-0.7,0.3-2.1,1-3.9
		c0.6-1.6,1.2-2.4,1.8-2.9c0.8-0.7,1.5-1,1.9-1.1c0.2-0.1,0.8-0.3,2.2-0.4c1.7-0.2,2.7-0.3,4,0.2c0.5,0.2,1.4,0.5,2.3,1.3
		c0.9,0.9,1.3,1.8,1.7,2.7c0.3,0.7,0.4,1.1,0.7,2.3c0.3,1.2,0.7,2.4,1,3.5c0.5,1.9,1.2,4.2,2,6.5c0.3,0.8,1.2,3.2,2.8,6.1
		c1.5,2.9,3,4.9,4.7,7.2c1.3,1.8,2.2,3,3.4,4.4c2.2,2.5,4.4,4.3,5.9,5.4c1.3,0.7,3.2,1.8,5.5,3.2c1.7,1,2.5,1.5,3.5,2.2
		c2.3,1.6,4,2.9,5.4,4.1c1.2,1,2.7,2.3,4.4,3.9c0,0,0.1,0.1,0.2,0.2c1.5,1.8,2.3,3.5,2.5,3.9c0.4,0.8,0.7,1.5,0.9,2.4
		c0.1,0.6,0.3,1.8,0,3.8c-0.2,1.1-0.5,2.3-1.9,5.4c-1,2.2-1.5,3.3-2.3,4.9c-0.7,1.2-2.3,4.1-5.1,7.4c-2,2.5-3.7,4-6.5,6.5
		c-2.5,2.2-5.7,5.2-10.4,8.4c-1.5,1.1-3.8,2.5-8.3,5.2c-3.2,1.9-4.8,2.9-6.8,4c-3.5,1.9-6.4,3.2-8.5,4c-1.3-0.6-3.3-1.5-5.6-2.7
		c-4.3-2.1-7.9-3.9-12.2-6.4c-1.6-1-4.3-2.6-7.6-5c-5.3-3.8-8.8-7.1-9.6-8c-2.6-2.5-5.2-5-7.9-8.9c-2.2-3.2-3.5-5.8-4-7
		c-1.1-2.4-1.6-4.1-2.1-6C119.2,130.2,119.2,129,119.4,128z"/>
	<path class="st4" d="M132.2,271c-0.1-0.8-0.2-1.9,0-3.1c0.4-2.4,1.4-4,1.8-4.4c0.7-1,1.4-1.6,2.1-2.2c1-0.9,1.9-1.4,2.6-1.8
		c0.8-0.5,1.4-0.8,2.3-1.1c0.7-0.2,1.3-0.3,1.7-0.4l-5.3-21.3h28.8V271H132.2z"/>
	<path class="st4" d="M206.5,271c0.1-0.8,0.2-1.9,0-3.1c-0.4-2.4-1.4-4-1.8-4.4c-0.7-1-1.4-1.6-2.1-2.2c-1-0.9-1.9-1.4-2.6-1.8
		c-0.8-0.5-1.4-0.8-2.3-1.1c-0.7-0.2-1.3-0.3-1.7-0.4l5.3-21.3h-28.8V271H206.5z"/>
	<g>
		<path class="st5" d="M184.1,72.5c0.4-2,1.3-3.4,2-4.2c0.5-0.7,1.3-1.4,2.3-2.1c0.5-0.3,1.3-0.9,2.4-1.2c1.2-0.4,2.2-0.4,3.1-0.4
			c0.7,0,1.7,0,2.9,0.4c1.7,0.5,2.8,1.2,3.1,1.4c0.3,0.2,1.1,0.8,1.9,1.8c1,1.2,1.5,2.5,1.8,3.4c0.2,0.5,0.6,2.2,0.3,4.4
			c-0.1,0.5-0.3,1.8-1,3.2c-0.3,0.5-0.8,1.5-1.8,2.6c-1.2,1.2-2.4,1.8-2.8,1.9c-1.2,0.5-2.2,0.6-3,0.7c-0.8,0.1-1.6,0.2-2.7,0
			c-1.9-0.3-3.1-1.2-4-1.8c-0.6-0.4-1.7-1.2-2.7-2.5c-0.9-1.3-1.3-2.5-1.4-2.9c-0.1-0.3-0.3-1.1-0.4-2.1
			C183.9,73.7,184,72.8,184.1,72.5z"/>
		<path d="M191.2,68.6c0.2,0.1,0.5,0.3,0.8,0.6c0.4,0.6,0.4,1.2,0.4,1.5c0,0.2,0,0.5-0.2,0.9c-0.1,0.2-0.2,0.5-0.6,0.7
			c-0.4,0.3-0.8,0.2-1.2,0.2c-0.2,0-0.5,0-0.8-0.2c-0.2-0.1-0.5-0.2-0.8-0.6c-0.2-0.3-0.3-0.6-0.3-0.8c-0.2,0.3-0.5,0.7-0.7,1.2
			c-0.1,0.1-0.2,0.6-0.3,1.2c-0.1,0.6,0,1,0,1.3c0,0.5,0.1,1.1,0.4,1.8c0.3,0.7,0.6,1.1,0.9,1.4c0.2,0.2,0.5,0.6,1,1
			c0.6,0.4,1.1,0.6,1.6,0.8c0.3,0.1,0.7,0.2,1.2,0.3c0.4,0,0.6,0,0.8,0c0.4,0,0.8,0,1.2-0.1c0.5-0.1,0.9-0.3,1.2-0.5
			c0.2-0.1,0.5-0.3,0.9-0.5c0.3-0.2,0.6-0.5,1-1c0.3-0.4,0.5-0.7,0.7-1c0.2-0.4,0.5-0.8,0.6-1.4c0-0.2,0.2-0.6,0.2-1.3
			c0-0.2,0-0.9-0.2-1.6c-0.2-0.8-0.6-1.4-0.8-1.8c-0.2-0.4-0.5-0.8-1-1.2c-0.6-0.5-1.1-0.8-1.6-1c-0.3-0.2-0.8-0.4-1.4-0.5
			c-0.4-0.1-1-0.2-1.7-0.1c-0.4,0.1-0.6,0.1-0.7,0.2C191.5,68.3,191.3,68.5,191.2,68.6z"/>
	</g>
	<g>
		<path class="st5" d="M134.2,72.5c0.4-2,1.3-3.4,2-4.2c0.5-0.7,1.3-1.4,2.3-2.1c0.5-0.3,1.3-0.9,2.4-1.2c1.2-0.4,2.2-0.4,3.1-0.4
			c0.7,0,1.7,0,2.9,0.4c1.7,0.5,2.8,1.2,3.1,1.4c0.3,0.2,1.1,0.8,1.9,1.8c1,1.2,1.5,2.5,1.8,3.4c0.2,0.5,0.6,2.2,0.3,4.4
			c-0.1,0.5-0.3,1.8-1,3.2c-0.3,0.5-0.8,1.5-1.8,2.6c-1.2,1.2-2.4,1.8-2.8,1.9c-1.2,0.5-2.2,0.6-3,0.7c-0.8,0.1-1.6,0.2-2.7,0
			c-1.9-0.3-3.1-1.2-4-1.8c-0.6-0.4-1.7-1.2-2.7-2.5c-0.9-1.3-1.3-2.5-1.4-2.9c-0.1-0.3-0.3-1.1-0.4-2.1
			C134,73.7,134.1,72.8,134.2,72.5z"/>
		<path d="M141.3,68.6c0.2,0.1,0.5,0.3,0.8,0.6c0.4,0.6,0.4,1.2,0.4,1.5c0,0.2,0,0.5-0.2,0.9c-0.1,0.2-0.2,0.5-0.6,0.7
			c-0.4,0.3-0.8,0.2-1.2,0.2c-0.2,0-0.5,0-0.8-0.2c-0.2-0.1-0.5-0.2-0.8-0.6c-0.2-0.3-0.3-0.6-0.3-0.8c-0.2,0.3-0.5,0.7-0.7,1.2
			c-0.1,0.1-0.2,0.6-0.3,1.2c-0.1,0.6,0,1,0,1.3c0,0.5,0.1,1.1,0.4,1.8c0.3,0.7,0.6,1.1,0.9,1.4c0.2,0.2,0.5,0.6,1,1
			c0.6,0.4,1.1,0.6,1.6,0.8c0.3,0.1,0.7,0.2,1.2,0.3c0.4,0,0.6,0,0.8,0c0.4,0,0.8,0,1.2-0.1c0.5-0.1,0.9-0.3,1.2-0.5
			c0.2-0.1,0.5-0.3,0.9-0.5c0.3-0.2,0.6-0.5,1-1c0.3-0.4,0.5-0.7,0.7-1c0.2-0.4,0.5-0.8,0.6-1.4c0-0.2,0.2-0.6,0.2-1.3
			c0-0.2,0-0.9-0.2-1.6c-0.2-0.8-0.6-1.4-0.8-1.8c-0.2-0.4-0.5-0.8-1-1.2c-0.6-0.5-1.1-0.8-1.6-1c-0.3-0.2-0.8-0.4-1.4-0.5
			c-0.4-0.1-1-0.2-1.7-0.1c-0.4,0.1-0.6,0.1-0.7,0.2C141.6,68.3,141.4,68.5,141.3,68.6z"/>
	</g>
	<path class="st0" d="M194.5,46c2.8-5.2,5.5-10.4,8.3-15.5c1.5,2.7,3,6.2,4.3,10.3c1.5,4.7,2.1,8.9,2.3,12.3
		C204.5,50.7,199.5,48.4,194.5,46z"/>
	<path class="st0" d="M143.1,46c-2.8-5.2-5.5-10.4-8.3-15.5c-1.5,2.7-3,6.2-4.3,10.3c-1.5,4.7-2.1,8.9-2.3,12.3
		C133.1,50.7,138.1,48.4,143.1,46z"/>
	<path class="st1" d="M164.5,91.2c0.2-0.5,0.6-0.8,0.8-1c0.9-0.7,2.1-0.6,4.6-0.5c3.2,0.2,3.8,0.2,4.2,0.8c0.5,0.7,0.3,1.6,0.1,2.2
		c-0.3,1.3-1.4,2.1-3.5,3.8c-0.3,0.2-0.8,0.6-1.3,0.5c-0.6,0-1-0.4-1.4-0.7c-2.1-1.7-3.2-2.6-3.4-3.4
		C164.4,92.6,164.2,91.9,164.5,91.2z"/>
	<path class="st6" d="M167.7,96.3c0.3,0.2,0.6,0.4,0.8,0.5c0.4,0.2,0.6,0.3,0.9,0.3c0.3,0,0.5-0.1,0.8-0.2c0.2-0.1,0.5-0.2,0.8-0.5
		c-0.4,3.2-0.5,5.6-0.5,6.1c0,0.5,0.2,0.8,0.2,0.8c0.1,0.1,0.2,0.2,0.4,0.4c0.3,0.3,0.6,0.5,1,0.7c0.4,0.2,0.8,0.2,1.4,0.3
		c0.3,0,0.9,0.1,1.7,0c0.6-0.1,0.9-0.1,1.1-0.3c0.3-0.2,0.3-0.3,0.9-0.6c0,0,0.2-0.2,0.6-0.3c0.2-0.1,0.3-0.1,0.4-0.1
		c0.2,0,0.4,0.2,0.5,0.2c0,0,0.2,0.2,0.3,0.4c0.1,0.1,0.2,0.5,0.1,1c-0.1,0.3-0.2,0.5-0.4,0.6c-0.2,0.2-0.5,0.4-0.7,0.5
		c-0.1,0.1-0.4,0.2-1.2,0.4c-0.4,0.1-0.7,0.2-1,0.2c-0.6,0.1-1.1,0.1-1.9,0c-0.6,0-1.1-0.1-1.4-0.2c-0.5-0.1-0.8-0.2-1.1-0.2
		c0,0-0.5-0.3-1-0.7c-0.6-0.5-0.7-0.8-1-0.8c-0.1,0-0.2,0.1-0.3,0.2c-0.3,0.2-0.6,0.5-0.7,0.6c-0.3,0.2-0.5,0.4-0.7,0.5
		c-0.5,0.3-0.6,0.4-0.8,0.4c-0.1,0-0.3,0.1-0.7,0.2c-0.5,0.1-0.9,0.1-1.3,0.1c-0.8,0-1.4,0-1.9,0c0.1,0,0.1,0,0.1,0
		c0,0-0.5-0.1-1-0.3c-0.2-0.1-0.4-0.1-0.6-0.2c-0.4-0.2-0.6-0.3-1-0.5c-0.3-0.2-0.4-0.3-0.6-0.4c-0.1-0.1-0.4-0.4-0.4-0.8
		c0-0.1,0-0.4,0.2-0.7c0.1-0.2,0.3-0.2,0.3-0.2c0.1,0,0.2-0.1,0.5-0.1c0.4,0,0.7,0.2,0.9,0.3c0.2,0.1,0.4,0.2,0.6,0.4
		c0.2,0.1,0.4,0.2,0.7,0.3c0.1,0,0.3,0.1,0.6,0.1c0.5,0,0.8,0,1.2,0c0.5,0,0.8-0.1,1.1-0.2c0.2,0,0.4-0.1,0.6-0.1
		c0.3-0.1,0.6-0.1,0.8-0.2c0.2,0,0.2-0.1,0.4-0.1c0,0,0.1,0,0.4-0.3c0.1-0.1,0.1-0.1,0.2-0.2c0,0,0.1-0.1,0.1-0.3c0,0,0-0.3,0.1-0.4
		C168.2,102.6,168,100,167.7,96.3z"/>
	<path class="st4" d="M169.9,97.8"/>
	<path class="st2" d="M196,258c2.7-10.3,4.6-19.2,6.1-26.1c1.7-8.2,1.5-8.1,3.5-17.4c2.7-12.6,3.5-15.1,5.5-25.7
		c1.2-6.4,2.1-11.6,2.4-14c0.2-1.6,0.8-5.2,1.5-9.9c0.6-4.5,1.1-8.5,1.5-11.8c0.4-3.4,0.8-6.7,1.2-10.1c0.1-1.9,0.3-3.7,0.4-5.5
		c0.4-2.3,0.9-4.5,1.3-6.8c0.8,1.6,2.1,4.1,4,6.9c1.8,2.6,2.5,3.2,4.3,5.8c1.7,2.5,2.6,4.3,4.3,7.6c6.2,12.2,5.3,10.1,6.8,13.3
		c2.2,4.8,4.4,9.4,6.3,15.8c1.7,5.5,2.5,9.8,3,12.5c0.6,3,1.4,7.4,1.7,13.1c0.2,3.3,0.3,5.5,0,8.5c-0.4,4.5-1.5,7.8-2.7,11.3
		c-1.7,5.2-3.5,8.8-5.5,12.8c-1.2,2.4-3,6.1-6,10.8c-2.4,3.8-4.7,7-6.6,9.5c0.1,0.1,2.3,2,2.5,2.2c1,0.8,1.5,1.3,1.8,1.7
		c0.9,1,1.5,1.9,1.8,2.5c0.9,1.5,1.5,2.6,1.7,4.2c0.1,0.8-0.1,1.5-0.2,2H206c-0.1-0.8-0.3-2-0.7-3.2c-0.3-0.9-0.7-2.2-1.7-3.7
		c-0.6-0.9-1.2-1.5-2.3-2.7c-1.9-2-2.4-2.4-2.8-2.6C197.6,258.2,196.6,258,196,258z"/>
	<path class="st2" d="M143.1,257.7c-2.6-9.9-4.7-18.5-6.3-25.3c-1.7-7.3-2.6-11.4-3.8-17.4c-1.3-6.9-1.5-8.6-2.9-15.4
		c-0.9-4-1.4-5.9-2.2-10.5c-0.8-4.3-0.9-5.2-1.6-8.8c-1.1-5.8-1.8-7.9-2.6-11.5c-0.8-3.7-1.7-9.1-2-16l-1.5-11l-1-10.8
		c-0.8,1.5-2,3.8-3.8,6.5c-1.8,2.5-2.7,3.5-4.3,5.8c-1.7,2.5-2.6,4.3-4.3,7.6c-6.2,12.2-5.3,10.1-6.8,13.3
		c-2.2,4.8-4.3,9.4-6.3,15.8c-1.7,5.5-2.5,9.8-3,12.5c-0.6,3-1.4,7.4-1.7,13.1c-0.2,3.3-0.3,5.5,0,8.5c0.4,4.5,1.5,7.8,2.7,11.3
		c1.7,5.2,3.5,8.8,5.5,12.8c1.2,2.4,3,6.1,6,10.8c2.4,3.8,4.7,7,6.6,9.5c-0.1,0.1-2.3,2-2.5,2.2c-1,0.8-1.5,1.3-1.8,1.7
		c-0.9,1-1.5,1.9-1.8,2.5c-0.9,1.5-1.5,2.6-1.7,4.2c-0.1,0.8,0.1,1.5,0.2,2h30.6c0.1-0.8,0.3-2,0.7-3.2c0.3-0.9,0.7-2.2,1.7-3.7
		c0.6-0.9,1.2-1.5,2.3-2.7c1.3-1.4,1.9-2.1,2.8-2.6C141.4,258.1,142.4,257.8,143.1,257.7z"/>
	<path class="st2" d="M70,148.7c0.9,0.8,1.5,1.5,1.7,1.8c0.9,1.2,1.4,2.3,1.7,3.3c0.3,0.9,0.8,2.5,0.7,4.5c0,0.5-0.2,2.2-1.3,4.2
		c-0.3,0.6-0.7,1-2.7,3.2c-2.6,2.7-2.6,2.6-3.5,3.7c-1,1.1-1.2,1.6-3.3,4.7c-0.7,1.1-1.8,2.6-3.2,4.5l-3.2,6.8l-2.5,9.8
		c-0.4,1.7-0.7,4.2-0.7,7.1c0,0.7,0.1,3.2,1,7.6c0.7,3.5,1.6,7.7,4,12.8c1.2,2.5,2.5,5.4,5.1,8.6c0.7,0.9,3.6,4.3,8.3,7.5
		c2.5,1.7,4.6,2.6,6.8,3.7c2,0.9,5.1,2.4,9.5,3.5c5.1,1.4,9.2,1.6,10.8,1.7c1.2,0,2.2,0,2.9,0c1.4,1.7,2.9,3.5,4.4,5.3
		c1.5,1.7,2.9,3.4,4.3,5c-1.3,1.1-2.4,2.1-3.2,2.7c-1.9,1.6-2.3,1.8-2.8,2.6c-0.5,0.7-1.4,2-1.7,3.7c-0.2,1.5,0.2,2.7-0.7,3.8
		c-0.1,0.2-0.3,0.3-0.4,0.4c-1.7,0.1-3.7,0.2-5.9,0c-1.8-0.1-3.4-0.4-4.8-0.7c-4.6-0.8-6.9-1.2-9.1-1.8c-4-1-6.7-1.7-10.1-3.3
		c-1.6-0.7-3.7-2.1-8-4.8c-5.4-3.5-8.2-5.2-9.6-6.5c-2.9-2.5-4.6-4.6-7.8-8.6c-2-2.5-4-5-6.3-8.8c-0.8-1.3-3.1-5.2-5.3-10.8
		c-1.9-4.8-2.8-8.5-3-9.3c-0.2-0.8-1-4.3-1.5-9.1c-0.4-4.5-0.9-8.5,0-13.6c0.1-0.6,0-0.1,1.7-6.8c1.9-7.8,1.8-7.9,2.3-9.3
		c1.1-3.2,2.4-5.5,4.3-9.1c1.7-3.1,2.5-4.6,4-6.6c1-1.4,2.8-3.2,6.3-7c0,0,1.4-1.5,5-5c2.3-2.2,3.1-2.9,4.3-3.5
		c0.9-0.4,2.9-1.4,5.3-0.8c0.9,0.2,1.9,0.7,3.8,1.8C68.9,147.8,69.5,148.2,70,148.7z"/>
	<path class="st2" d="M166.5,271.1c-0.2-25.7-0.3-51.4-0.5-77.1c-0.2-1.1-0.1-2,0-2.6c0.1-0.4,0.2-0.9,0.5-1.4
		c0.5-0.9,1.3-1.5,1.9-1.8c0.4-0.1,1.5-0.3,2.5,0.1c0.2,0.1,0.8,0.3,1.4,1.1c1.3,1.7,0.9,4,0.7,4.7c-0.2,25.7-0.5,51.3-0.7,77H166.5
		z"/>
	<g>
		<path d="M144.8,89.8v-1.1c-14.8-1-29.5-1.9-44.3-2.9c-0.4-0.1-0.7,0-0.9,0.2c-0.1,0.2,0,0.4,0,0.4c0.1,0.5,0.9,0.6,1.2,0.7
			C102.3,87.3,136.9,89.3,144.8,89.8z"/>
		<path d="M145.1,93.9l-0.2-1.1c-14.8,1.1-29.5,2.3-44.3,3.5c-0.4-0.1-0.7,0.1-0.8,0.3c-0.1,0.2,0,0.4,0,0.4c0.2,0.4,1,0.5,1.2,0.5
			C102.7,97.5,137.2,94.6,145.1,93.9z"/>
		<path d="M144.9,92.1l-0.1-1.1c-14.8-0.1-29.6-0.1-44.4-0.2c-0.4-0.1-0.7,0-0.9,0.2c-0.1,0.2,0,0.4,0,0.4c0.2,0.5,0.9,0.6,1.2,0.6
			C102.3,92.2,136.9,92.1,144.9,92.1z"/>
	</g>
	<g>
		<path d="M194.8,89.8v-1.1c14.8-1,29.5-1.9,44.3-2.9c0.4-0.1,0.7,0,0.9,0.2c0.1,0.2,0,0.4,0,0.4c-0.1,0.5-0.9,0.6-1.2,0.7
			C237.4,87.3,202.8,89.3,194.8,89.8z"/>
		<path d="M194.5,93.9l0.2-1.1c14.8,1.1,29.5,2.3,44.3,3.5c0.4-0.1,0.7,0.1,0.8,0.3c0.1,0.2,0,0.4,0,0.4c-0.2,0.4-1,0.5-1.2,0.5
			C237,97.5,202.5,94.6,194.5,93.9z"/>
		<path d="M194.7,92.1l0.1-1.1c14.8-0.1,29.6-0.1,44.4-0.2c0.4-0.1,0.7,0,0.9,0.2c0.1,0.2,0,0.4,0,0.4c-0.2,0.5-0.9,0.6-1.2,0.6
			C237.4,92.2,202.7,92.1,194.7,92.1z"/>
	</g>
</g>
</svg>
