<?xml version="1.0" encoding="utf-8"?>
<!-- Generator: Adobe Illustrator 25.4.1, SVG Export Plug-In . SVG Version: 6.00 Build 0)  -->
<svg version="1.1" id="Layer_1" xmlns="http://www.w3.org/2000/svg" xmlns:xlink="http://www.w3.org/1999/xlink" x="0px" y="0px"
	 viewBox="0 0 293.9 573" style="enable-background:new 0 0 293.9 573;" xml:space="preserve">
<style type="text/css">
	.st0{fill:#EE7F7F;stroke:#221E20;stroke-miterlimit:10;}
	.st1{fill:#FFFFFF;}
	.st2{display:none;fill:#230B0C;}
	.st3{fill:#221E20;}
	.st4{fill:#D7ECEF;stroke:#221E20;stroke-miterlimit:10;}
	.st5{fill:#CDC5E1;stroke:#221E20;stroke-miterlimit:10;}
	.st6{fill:#0F0C16;stroke:#221E20;stroke-miterlimit:10;}
	.st7{fill:#FBDFD1;}
	.st8{fill:#230B0C;}
	.st9{fill:#4C423E;}
	.st10{fill:#1E080A;}
	.st11{fill:#D19A7B;}
	.st12{fill:#FAC9A2;}
	.st13{fill:#DF7B73;}
	.st14{fill:#EC5F77;}
	.st15{fill:#574596;}
	.st16{fill:#1D1D1B;}
	.st17{fill:#F73C41;}
</style>
<g id="body">
	<path class="st0" d="M293.9,125"/>
	<path class="st1" d="M384.2,57"/>
	<path class="st2" d="M446,54.9"/>
	<path class="st1" d="M415.8,74.6"/>
	<path class="st3" d="M368.6,88.9"/>
	<g>
		<path class="st0" d="M57.2,155.9"/>
		<path class="st0" d="M217.5,158.2"/>
		<path class="st0" d="M217.8,167.2"/>
		<path class="st0" d="M49.6,151.2"/>
		<path class="st0" d="M52.9,152.6"/>
		<path class="st0" d="M76.5,157.6"/>
		<path class="st0" d="M78.5,163.9"/>
		<path class="st0" d="M58.2,135.9"/>
		<path class="st0" d="M49.9,190.1"/>
		<path class="st0" d="M62.6,201.1"/>
		<path class="st0" d="M83.5,172.9"/>
		<path class="st0" d="M250.8,153.2"/>
		<path class="st0" d="M270.4,120.6"/>
		<path class="st0" d="M230.5,140.3"/>
		<path class="st0" d="M234.5,169.2"/>
		<path class="st0" d="M226.2,246.7"/>
		<path class="st0" d="M219.5,295.9"/>
		<path class="st0" d="M174.3,306.9"/>
		<path class="st4" d="M157.6,144.6"/>
		<path class="st5" d="M267.4,171.2"/>
		<path class="st5" d="M247.1,281.6"/>
		<path class="st6" d="M111.1,348.8"/>
		<path class="st6" d="M243.8,393.3"/>
		<path class="st6" d="M242.8,370"/>
		<path class="st7" d="M142.4,488.4"/>
		<path class="st3" d="M189.3,515.6"/>
		<path class="st3" d="M138.1,510.1"/>
		<path class="st7" d="M198.7,503.1"/>
		<path class="st7" d="M207,487.1"/>
		<path class="st7" d="M123.1,138.3c2.1-1.3,4.5-2.7,7.3-4.1c2.5-1.2,4.9-2.1,7-2.8c-0.3-1.9-0.5-4.2-0.5-6.7c0-2.6,0.2-4.9,0.5-6.9
			c-4.1-3.1-11.4-9.4-16-19.9c-0.6-1.5-3.5-8.2-4.1-17.6c-0.3-4.8-0.6-10.8,2.2-18c2.7-7,7-11.2,9-13.2c3.1-3,6.3-6,11.4-7
			c0.7-0.1,3.2-0.6,6.5,0c7.6,1.3,12.3,7.1,14.7,10c6.5,7.8,8,16.2,8.6,20.2c1.7,10.3-0.4,18.5-1.2,21.3
			c-3.9,13.2-12.5,20.9-16.1,23.8c0.2,2.4,0.4,4.9,0.5,7.6c0.1,2.6,0.1,5,0,7.3c2.3,0.9,4.8,1.9,7.4,3.3c2,1.1,3.9,2.2,5.5,3.2
			c-1.9,3.9-3.8,5.1-5.1,5.5c-0.5,0.1-1.5,0.3-3,0.8c-1.4,0.4-2.4,0.9-3.1,1.2c-2.5,0.7-5,1.4-7.5,2.1c-2.8-0.6-5.6-1.1-8.4-1.7
			c-1.6-0.1-4.3-0.5-7.2-2.1c-1.7-0.9-2.9-2-3.8-2.9C126.1,140.6,124.6,139.5,123.1,138.3z"/>
		<path class="st8" d="M107.4,139.1c-5.2-15.3-7.4-28.3-8.4-37.5c-1.6-14.9-0.5-23,0.2-26.8c1.2-6.7,3-11.7,4.4-15.5
			c2-5.3,4.4-11.9,9.1-17.5c3-3.6,6.3-6.2,6.6-6.4c1.3-0.9,2.7-1.8,4-2.7c2-1.7,4.7-3.4,8-4.7c12.6-4.7,24.5,1.5,27.2,3
			c3.2,2.1,6.4,4.1,9.5,6.2c1.8,1.1,4.5,3.8,7.4,7.6c2,2.7,3.3,5.1,4,6.4c1.5,3,2.2,5.4,2.9,7.5c0.9,2.9,1.9,6.9,2.4,11.8
			c0.2,2.6,0.5,6.6,1.1,11.5c0.6,5.4,1.2,9.3,1.3,10c0.8,5.5,1.1,17.5-1.1,45.3c-6.8,0.6-13.5,1.1-20.3,1.7
			c-2.8-1.6-5.7-3.1-8.5-4.7c-1.5-0.6-3-1.2-4.5-1.9l-0.5-15c4.8-5.2,13.6-16.4,15.6-32.5c0.6-5.1,1.7-14-2.7-23.5
			c-0.9-1.9-8.7-18.6-21-18.5c-6.4,0.1-11.3,4.6-14.6,7.6c-1,0.9-5.6,5.2-8.8,12.8c-5.3,12.6-2.7,24.5-1.5,28.9
			c4.1,14.9,14.6,23.1,18,25.5v13.6l-14.3,6.9C117.9,138.6,112.6,138.8,107.4,139.1z"/>
		<path class="st9" d="M69.6,38.8"/>
		<path class="st7" d="M99.4,71.6"/>
		<path class="st10" d="M120.4,62.6c4.1-1.6,7.3-1.9,9.5-1.8c1.8,0,5.9,0.4,5.9,0.4l0,0c0,0,1.1,0.1,1.8-0.4c0.6-0.4,1-1.2,0.9-2
			c-0.1-0.3-0.2-0.7-1.2-1.2c-1.5-0.8-2.9-0.8-3.5-0.8c-3,0.1-5.4,0.7-5.7,0.8c-3,0.8-4.9,1.4-6.5,3.2
			C121,61.5,120.6,62.1,120.4,62.6z"/>
		<path class="st3" d="M147.8,59.7c0-0.8,0.4-1.4,0.5-1.5c0.3-0.4,0.6-0.6,0.7-0.7c0,0,0.9-0.6,3-0.7l0,0c0.2,0,0.6,0,1,0
			c1.1,0.1,3.1,0.1,5.3,0.9c1.8,0.6,3,1.3,4.4,2.1c1.5,0.9,3.9,2.4,3.8,2.8c-0.1,0.2-1.2-0.2-5.5-1.4c-0.7-0.2-1.4-0.4-2.2-0.5
			c-1.3-0.2-2.4-0.2-3.2-0.2c-1.2-0.1-2.1,0-2.7,0.2c-1.5,0.3-2.3,0.4-3.2,0.9c-0.5,0.2-0.8,0.4-1.1,0.3
			C148,61.5,147.8,60.3,147.8,59.7z"/>
		<path class="st3" d="M200.9,109.1"/>
		<path class="st3" d="M74.9,47.5"/>
		<g>
			<path class="st1" d="M148.5,73c0-2.3,4.5-5.4,5.6-5.4c0.5-0.1,0.9,0,1.7,0c0.7,0,2.1,0.1,3.9,0.5c1.6,0.3,2.4,0.5,2.6,0.8
				c0.6,1.2-1.5,4.2-4.2,5.5C154,76.3,149.2,73.4,148.5,73z"/>
			<path class="st1" d="M187.8,75.9"/>
			<path class="st3" d="M150,70.1c-0.1-0.1,0.4-0.6,2.9-2.5l0,0c0.9-0.4,2.1-0.7,3.6-0.8c2.9-0.1,5.1,0.9,6.1,1.4c1,0.4,2,0.8,3,1.2
				c-5.4,3.7-7.3,4.8-7.4,4.7c-0.2-0.2,4.2-3.1,3.6-4.9c-0.3-0.9-2-1.2-3-1.4c-0.6-0.1-1.9-0.2-4,0.3
				C151.9,68.8,150.1,70.2,150,70.1z"/>
			<path class="st3" d="M164.5,72.5"/>
			<path class="st1" d="M165.6,72.9"/>
			<path class="st3" d="M153,70.7c-0.1,0.3-0.2,0.9,0,1.7c0,0.1,0.3,1.1,1.2,1.6c0.4,0.2,0.7,0.2,1.2,0.2c0.4,0,1,0,1.8-0.3
				c0.2-0.1,0.6-0.3,0.9-0.8c0.4-0.6,0.5-1.2,0.5-1.4c0-0.3,0.1-1.1-0.4-1.9c-0.4-0.8-1.1-1.1-1.4-1.2c-0.2-0.1-1.2-0.5-2.3,0
				C154.6,68.6,153.3,69.2,153,70.7z"/>
			<path class="st1" d="M155.3,70.1c0.4-0.1,0.8,0,1,0.1s0.4,0.2,0.6,0.5s0.1,0.6,0.1,0.8c0,0.3,0,0.5-0.2,0.7
				c-0.3,0.4-0.8,0.4-1.1,0.4s-0.6,0-0.9-0.3c-0.3-0.2-0.3-0.6-0.4-0.7c0-0.1-0.1-0.6,0.2-1C154.9,70.3,155.2,70.1,155.3,70.1z"/>
			<path class="st1" d="M152.1,69.3"/>
		</g>
		<g>
			<path class="st1" d="M138.4,72.9c-0.1-2.3-4.6-5.3-5.7-5.4c-0.5,0-0.9,0-1.7,0c-0.7,0-2.1,0.1-3.9,0.5c-1.6,0.4-2.4,0.5-2.6,0.9
				c-0.6,1.2,1.6,4.2,4.3,5.4C133,76.3,137.7,73.4,138.4,72.9z"/>
			<path class="st3" d="M136.6,70c0-0.1-0.5-0.6-3-2.4c0,0,0,0-0.1,0c-0.9-0.3-2.1-0.6-3.7-0.6c-2.4,0-4.2,0.7-5.1,1.2
				c-1.2,0.5-2.5,1-3.7,1.5c5.6,3.8,7.6,5,7.6,4.9c0.1-0.1-4.1-2.6-3.7-4.5c0.3-1.2,2.1-1.7,2.8-1.9c0.5-0.1,1.7-0.4,4.1,0.1
				C134.6,68.8,136.5,70.2,136.6,70z"/>
			<path class="st3" d="M122.1,72.8"/>
			<path class="st1" d="M121,73.1"/>
			<path class="st3" d="M133.6,71c0.1,0.3,0.2,0.9,0,1.7c0,0.1-0.3,1.1-1.2,1.6c-0.4,0.2-0.7,0.2-1.2,0.2c-0.4,0-1.1,0-1.8-0.3
				c-0.2-0.1-0.6-0.3-0.9-0.8c-0.4-0.6-0.5-1.2-0.5-1.4c0-0.3-0.1-1.1,0.4-1.9c0.4-0.8,1.1-1.1,1.4-1.2c0.2-0.1,1.2-0.5,2.3,0
				C132,68.9,133.3,69.5,133.6,71z"/>
			<path class="st1" d="M131.3,70.4c-0.4-0.1-0.8,0-1,0.1s-0.4,0.2-0.6,0.5c-0.2,0.3-0.1,0.6-0.1,0.8c0,0.3,0.1,0.5,0.2,0.7
				c0.3,0.4,0.8,0.4,1.1,0.4c0.2,0,0.6,0,0.9-0.3c0.3-0.2,0.3-0.6,0.4-0.7c0-0.1,0.1-0.6-0.2-1C131.7,70.5,131.4,70.4,131.3,70.4z"
				/>
			<path class="st1" d="M134.5,69.5"/>
			<path class="st3" d="M152,59.7"/>
		</g>
		<path class="st3" d="M164,67.6"/>
	</g>
	<path class="st11" d="M141.2,79.4c-1,3.2-2,5.6-2.7,7.3c-0.7,1.6-1.4,2.9-0.8,3.7c0.8,1.1,3.5,1.1,3.5,1.1l0,0c0,0-0.9-0.6-2.6-1.8
		C139.4,86.3,140.3,82.9,141.2,79.4z"/>
	<path class="st12" d="M-56.2-34c-28-4.7-55.9-9.5-83.8-14.3"/>
	<path class="st1" d="M523.6,93.5"/>
	<path class="st7" d="M117.9,461.8"/>
	<path class="st7" d="M156.9,459.2"/>
	<path class="st7" d="M126.7,517.3"/>
	<g>
		<path class="st1" d="M-14.5,90.2c0.2-0.4,0.7-1.2,1.6-1.8c0.2-0.2,0.8-0.5,1.8-0.8c1.4-0.3,1.8,0,3.9,0.1c2.2,0,2.8-0.2,4.3,0.2
			c0.5,0.2,1,0.4,1.2,0.6c0.1,0.2,0.3,0.5,0.7,0.8s0.8,0.4,1,0.4C-4.8,89.9-9.6,90.1-14.5,90.2z"/>
		<path class="st1" d="M8,107.8c0.5,0.6,1.2,1.4,2.2,2.1c0.7,0.5,1.3,0.9,2.1,1.2c1,0.3,1.3,0.1,3.8,0.2c1.8,0.1,1.6,0.2,2.2,0.1
			c0.5-0.1,2.4-0.3,3.9-1.8c1-1,1.4-2.2,1.6-2.8c-2.8,0.6-5.6,1.3-8.4,1.9C12.9,108.4,10.4,108.1,8,107.8z"/>
		<path class="st13" d="M139.2,96.5"/>
	</g>
	<path class="st7" d="M126.5,137c-16.8,5.4-28.2-1-35.3,5.4c-1.3,1.2-3.1,3.4-4,7.5c-1.8,7.7-4.5,19.8-6.7,34.8
		c-3.2,21.7-2,25.5-5.8,37.7c-4,13-7.4,15.1-15.3,34.4c-4.6,11.3-7.7,20.8-9.6,27.1c-9.2,4.3-15.6,9.1-19.6,12.6
		c-4.1,3.6-9.8,8.5-8.6,11.3c1,2.4,6.7,2.3,10.1,1.6c6.2-1.3,9.8-6,11-7.7c-0.1,3.3,0.2,5,1,5.3c1.2,0.4,3.4-2.9,6.7-9.7
		c1-1.7,3.8-6.8,4.8-8.5c19-33.8,28.6-50.8,31.1-56.1c5.7-11.9,12.6-29.8,16.3-54.5c0.6-9.9,1.1-12.2,1.4-12.2
		c0.6,0-0.8,9.1,4.3,17.4c1.5,2.4,2.4,2.9,3.6,5.7c1.6,3.6,2.1,7.1,2.1,11.8c0.1,5.3,0.1,11.4-2.1,19.9c-1.3,4.9-1.9,5.1-7.4,18.5
		c-3.4,8.4-5.1,12.6-5.8,15.1c-0.6,2.2-1.9,7-1.9,26.3c0,10.1,0,17.9,1,28.8c0.6,7,1.3,14.5,3.4,24.3c3,14.5,5.4,16.8,5.8,27.1
		c0.1,4.7-0.3,6.7,0,15.4c0.2,7,0.6,8.5,0.5,13.4c-0.2,6.6-1,8.7-1.4,14.6c-0.6,6.8-0.1,11.6,0.5,18.6c0.6,7.3,1.9,14,4.4,27.2
		c1.6,8.2,3.1,16.5,4.7,24.7c0.9,4.4,1.7,8.3,1.9,13.8c0.2,4.4-0.1,7.8-0.5,13.4c-0.3,3.4-0.6,6.2-1.4,16.3c-0.3,3.7-0.5,6,0,9.2
		c0.4,2.8,1,5.8,3.4,8.5c0.6,0.6,3.9,4.4,7.7,3.7c0.5-0.1,2.1-0.5,4.4-3.7c3.7-5.1,4.2-10.6,4.2-11.3c0.6-7.4-2.8-8.9-4.2-18.2
		c-0.3-1.9-0.1-1.3,0-15.4c0-3.6,0-9,0-19.8c0-12.2-0.1-11.8,0-13c0.1-2.8,0.4-7.3,2.3-21.5c1.6-11.6,1.6-9.8,1.9-13.4
		c0.9-9,0.2-12.6,0-28.8c-0.1-5.4,0-2.2,0-20.3c0-19.5-0.2-19.5,0-24.7c0.6-19.5,2.2-15.7,2.4-26.3c0-0.8,0.1-5.5,2.4-10.9
		c0.7-1.6,2.2-5,3.4-4.9c1.6,0.2,1.7,7.1,1.9,15c0.4,11.7,0.7,23.5,1.9,34.4c1.5,13.5,3.1,16,1.9,23.9c-0.7,4.8-1.8,7-2.4,13.4
		c-0.3,3.8-0.3,6.8,0.5,16.6c0.8,10.9,1.7,19.4,1.9,21.9c1.3,13.1,1.9,19.6,2,19.8c1.8,19.2,2.7,28.7,2.4,35.7
		c-0.8,16.1-2.4,24.1-2.4,24.1c-0.8,4.1-2.3,11.1,0,18.8c1.2,3.9,2.7,5.9,4.7,6.9s4.6,1.1,6.7,0c2.5-1.3,3.6-4,4.3-6.9
		c2.2-8.7,0.6-15.5,0-24.3c-0.3-3.6-0.5-9,0-15.8c0.2-7.1,0.9-15.1,2.4-23.9c2.7-15.8,5.6-19.1,6.7-32.4c0.1-0.7,0-0.2,0-23.9
		c0-7.4,0-14.9,0-22.3c0-20.1,0-19.8,0-20.3c0.2-9.7,1-16.8,3.6-35.2c5.4-38.9,5.6-34.6,6-41.7c0.3-5.3,1.7-30.2-3.9-44.4
		c-0.4-1.1-2.7-6.5-5.2-14.2c-1.6-4.9-2.4-7.4-2.9-9.5c-1.1-5.3-0.8-10.9,0-21.9c0.5-7,0.9-8.8,1.9-10.9c2-4,3.7-3.7,6-8
		c2.2-4.1,2.6-8.1,3.1-12.7c0.6-5.2,0.2-8.1,0.5-8.1c0.6-0.1,2,12.7,5.3,29.6c1.4,7,2.6,13.1,4.8,21.1c1.3,4.6,3.7,13,7.7,22.3
		c5.9,13.8,9.8,16.7,18.7,32.8c2.9,5.4,7.1,13.5,11.5,23.9c10.8,14,14.8,17.9,15.7,17.3c1.2-0.8-3.9-9.8-2.3-10.9
		c1.3-0.9,6.1,3.2,9.4,7.3c2.8,3.5,3.8,6.3,4.9,6.1c1.1-0.3,1.3-3.3,1.2-5.2c-0.3-5.5-3.7-9.5-4.8-10.6c-3.5-3.9-7.7-5.6-13.7-8.1
		c-1.8-0.7-3.3-1.3-4.3-1.6c-4.1-18.8-10-31.5-14.8-39.7c-2.2-3.7-5.6-9.1-8.1-17.4c-2.8-9.2-2.9-17.3-2.6-22.8
		c-0.6-5.4-1.4-11.8-2.6-18.9c-0.7-3.9-2.7-15.3-7.2-29.6c-3.8-12.1-5.8-14.9-8.6-16.8c-4.6-3.1-10.3-3.3-13.9-3.4
		c-8-0.3-11,2.2-16.8,0c-0.9-0.4-4-1.7-6.6-4.7c-5.6-6.6-4-15.4-3.7-16.8c-2.5,1.4-5,2.7-7.4,4.1c-3.8-1.2-7.7-2.3-11.5-3.5
		c0.8,2.8,2.8,11.7-2.1,17.2C131.1,135.3,129,136.2,126.5,137z"/>
	<g>
		<path class="st14" d="M133.6,101.5c-0.1-0.2,0.3-0.4,3.3-1.7c2.7-1.2,3.2-1.4,4.2-1.5c1.2-0.2,2.3-0.1,3.1,0
			c0.1,0,0.2,0.1,0.3,0.1c1.4,0.7,2.5,1.1,3.4,1.4c0.8,0.3,2,0.6,3.1,1.5c0.6,0.5,0.6,0.7,0.6,0.7c-0.2,0.4-1.6,0.2-4.2,0.1
			c-1.4,0-2.8,0-4.2,0c-3.2,0-3.5,0.1-4.8,0C136.1,102.1,133.7,102,133.6,101.5z"/>
		<path class="st14" d="M133.6,101.5c-0.5,0.6,1.4,2.4,2.2,3.1s1.4,1.2,2.5,1.6c0.9,0.4,1.7,0.4,2.7,0.5c0,0,2.8,0.2,5.1-0.4
			c1-0.3,2-0.7,2-0.7c0.1,0,0.1-0.1,0.2-0.1c0.7-0.6,1.4-1.2,2-2c0.4-0.5,0.8-0.9,1.1-1.4c-1.8-0.5-2.9-0.3-3.5,0
			c-0.8,0.4-0.8,0.9-1.9,1.4c-0.8,0.3-1.5,0.4-2.4,0.6c-0.5,0.1-1.3,0.2-2.2,0.1s-1.5-0.2-1.8-0.3c-0.5-0.1-1.1-0.3-1.6-0.6
			c-0.9-0.5-0.8-0.9-1.5-1.4C135.6,101.2,133.9,101.1,133.6,101.5z"/>
		<path class="st1" d="M136.5,101.8l1.5,1.4l1.6,0.6l2.4,0.3l1.6-0.1l2.4-0.6c0.6-0.4,1.3-0.9,1.9-1.4c-0.7-0.1-1.4-0.1-2.1-0.2
			c-1,0-2-0.1-2.9-0.1H141h-2.7L136.5,101.8L136.5,101.8z"/>
	</g>
	<path class="st3" d="M116.1,510.1c-2.1,0.4-2,10.2-1.2,16.5c1.2,9.2,3.9,12,5.4,13.2c0.8,0.6,2.9,2.3,5.2,1.9
		c2.5-0.4,3.9-2.9,5.6-6c1.5-2.7,3.3-6,3.8-11c0.9-8.4-2.5-16.2-3.8-16c-0.9,0.1-0.8,4.2-3.8,11.4c-1,2.3-1.4,2.9-1.9,3
		C122.3,523.6,118.7,509.6,116.1,510.1z"/>
	<path class="st3" d="M151,512.4c-1.6,0.3-1.5,7.7-1.2,12.2c0.5,6.8,1.1,15.2,5.6,16.6c3.3,1.1,7.2-2,7.7-2.5
		c2.2-1.8,3.1-3.8,3.9-5.7c1.9-4.3,1.8-8.1,1.7-12.4c-0.1-3-0.3-8.8-1.6-9c-2-0.3-3.9,13.8-7.8,14C155.6,525.6,153.1,512,151,512.4z
		"/>
	<path class="st3" d="M117.5,520.6"/>
	<path class="st3" d="M122.4,522"/>
</g>
<g id="purpledress">
	<path class="st15" d="M98.5,139.6c2.9-0.5,7.1-0.9,12.1,0c1.8,0.3,3.8,0.9,11.5,4.1c6,2.5,9,3.8,13.4,5.9c5.7,2.8,6.8,3.6,15.8,8.5
		c0.1,0,0.2,0.1,0.3,0.2c14.2,7.8,17.1,12.2,27.2,16.9c2.2,1,3.2,1.3,4,2.5c1.8,2.7,0.2,7-3,15.7c-0.8,2.3-1.5,4.2-2.8,6.8
		c-1.2,2.6-1.8,3.3-2.6,5.2c0,0-1.3,3.2-1.8,7.1c-1,7.5,4.5,13.6,8.5,27.8c0.9,3.1,0.2,1.5,2.4,10.8c0,0,3.3,14.1,3.9,18.9
		c0,0.1,0.1,0.7,0.2,1.5c0.1,0.9,0.3,2.1,0.7,3.5c0.9,3.9,2,6.3,2.9,8.4c1.7,4.3,1.3,5.5,2.9,12.5c1.1,5,1.8,6.6,4,14
		c3.7,12.5,3.2,13.5,5.5,20.2c6,17.5,14.3,32.3,14.3,32.3c5.2,9.5,9.4,15,7.7,16.7c-1.4,1.4-5.1-1.9-14.6-3.5
		c-3.9-0.7-3.6-0.2-12.8-1.1c-6.8-0.6-10.8-1-16.1-2.1c-6.2-1.3-9.3-2-12.8-3.9c-4.2-2.3-5.2-4.4-10.6-7.1c-3.3-1.6-6-2.4-7.1-2.7
		c-4.8-1.3-8.4-1.2-17.5-0.5c-10.9,0.8-16.3,1.2-17.9,1.8c-7,2.5-12.8,7.1-15,8.9c-3.6,2.9-3.8,3.8-7,5.7c-1.1,0.6-5.7,3.4-12.8,4.6
		c-5.3,0.9-8,1.3-9.5,0c-2.7-2.3-0.4-7.7,2.9-19.5c3.9-13.6,2.1-10.8,6.6-26.6c3.6-12.8,4.3-13,5.9-20.4c1.7-8.3,2.7-12.4,3.3-15.8
		c0.5-2.9,0.5-3.4,1.6-10.9c0.9-6.3,1.7-11.5,2.2-14.8c1-5.2,1.9-9.5,2.7-12.8c0.6-2.9,1.4-5.7,2.5-9.3c1.5-4.8,2.9-8.2,4-10.8
		c2.8-6.6,5.7-13.7,8.9-21.4c0.2-0.9,0.5-1.9,0.6-3c0.3-3.7-0.8-6.6-1.6-8.4c-0.3-1.3-0.8-3.2-1.6-5.5c-0.9-2.5-1.4-3.5-2.2-5.6
		c-0.6-1.4-1.7-4.5-2.6-8.1c-0.9-4-1.1-7.2-1.2-9.6c-0.2-4.9,0.1-8.6,0.3-10c0.5-4.1,1.2-6.1,1.5-7.8
		C105.6,154.5,105,148.5,98.5,139.6z"/>
	<path class="st16" d="M112.2,208c20.3,0.1,40.6,0.2,60.9,0.3c-0.1,1-0.2,2.5-0.2,4.3c0,1.9,0.1,4.8,1,8c1,3.3,2.1,3.8,2,4.6
		c-0.8,6.9-67.2,4.9-67.6-1.4c-0.1-0.9,1.6-2.1,3.2-6.7c0.4-1.1,0.7-2,0.9-2.7c-0.3-4.2-0.5-7.5-0.5-7.6c0.1,0,0.6,6,0.7,6
		c0,0,0-0.6-0.1-1.9C112.4,209.9,112.3,208.9,112.2,208z"/>
</g>
<g id="reddress">
	<path class="st17" d="M99,139.6c2.9-0.5,7.1-0.9,12.1,0c1.8,0.3,3.8,0.9,11.5,4.1c6,2.5,9,3.8,13.4,5.9c5.7,2.8,6.8,3.6,15.8,8.5
		c0.1,0,0.2,0.1,0.3,0.2c14.2,7.8,17.1,12.2,27.2,16.9c2.2,1,3.2,1.3,4,2.5c1.8,2.7,0.2,7-3,15.7c-0.8,2.3-1.5,4.2-2.8,6.8
		c-1.2,2.6-1.8,3.3-2.6,5.2c0,0-1.3,3.2-1.8,7.1c-1,7.5,4.5,13.6,8.5,27.8c0.9,3.1,0.2,1.5,2.4,10.8c0,0,3.3,14.1,3.9,18.9
		c0,0.1,0.1,0.7,0.2,1.5c0.1,0.9,0.3,2.1,0.7,3.5c0.9,3.9,2,6.3,2.9,8.4c1.7,4.3,1.3,5.5,2.9,12.5c1.1,5,1.8,6.6,4,14
		c3.7,12.5,3.2,13.5,5.5,20.2c6,17.5,14.3,32.3,14.3,32.3c5.2,9.5,9.4,15,7.7,16.7c-1.4,1.4-5.1-1.9-14.6-3.5
		c-3.9-0.7-3.6-0.2-12.8-1.1c-6.8-0.6-10.8-1-16.1-2.1c-6.2-1.3-9.3-2-12.8-3.9c-4.2-2.3-5.2-4.4-10.6-7.1c-3.3-1.6-6-2.4-7.1-2.7
		c-4.8-1.3-8.4-1.2-17.5-0.5c-10.9,0.8-16.3,1.2-17.9,1.8c-7,2.5-12.8,7.1-15,8.9c-3.6,2.9-3.8,3.8-7,5.7c-1.1,0.6-5.7,3.4-12.8,4.6
		c-5.3,0.9-8,1.3-9.5,0c-2.7-2.3-0.4-7.7,2.9-19.5c3.9-13.6,2.1-10.8,6.6-26.6c3.6-12.8,4.3-13,5.9-20.4c1.7-8.3,2.7-12.4,3.3-15.8
		c0.5-2.9,0.5-3.4,1.6-10.9c0.9-6.3,1.7-11.5,2.2-14.8c1-5.2,1.9-9.5,2.7-12.8c0.6-2.9,1.4-5.7,2.5-9.3c1.5-4.8,2.9-8.2,4-10.8
		c2.8-6.6,5.7-13.7,8.9-21.4c0.2-0.9,0.5-1.9,0.6-3c0.3-3.7-0.8-6.6-1.6-8.4c-0.3-1.3-0.8-3.2-1.6-5.5c-0.9-2.5-1.4-3.5-2.2-5.6
		c-0.6-1.4-1.7-4.5-2.6-8.1c-0.9-4-1.1-7.2-1.2-9.6c-0.2-4.9,0.1-8.6,0.3-10c0.5-4.1,1.2-6.1,1.5-7.8
		C106.1,154.5,105.5,148.4,99,139.6z"/>
	<path class="st16" d="M112.5,208.6c20.3,0.1,40.6,0.2,60.9,0.3c-0.1,1-0.2,2.5-0.2,4.3c0,1.9,0.1,4.8,1,8c1,3.3,2.1,3.8,2,4.6
		c-0.8,6.9-67.2,4.9-67.6-1.4c-0.1-0.9,1.3-1.9,3.2-6.7c0.6-1.4,1-2.6,1.2-3.4c-0.3-2.3-0.6-4.5-0.9-6.8c0.4,4,0.7,6,0.7,6
		s0-0.6-0.1-1.9C112.7,210.6,112.6,209.6,112.5,208.6z"/>
</g>
</svg>
