<?xml version="1.0" encoding="utf-8"?>
<!-- Generator: Adobe Illustrator 25.4.1, SVG Export Plug-In . SVG Version: 6.00 Build 0)  -->
<svg version="1.1" id="Layer_1" xmlns="http://www.w3.org/2000/svg" xmlns:xlink="http://www.w3.org/1999/xlink" x="0px" y="0px"
	 viewBox="0 0 595.3 841.9" style="enable-background:new 0 0 595.3 841.9;" xml:space="preserve">
<style type="text/css">
	.st0{fill:#EE7F7F;stroke:#221E20;stroke-miterlimit:10;}
	.st1{fill:#FFFFFF;}
	.st2{fill:#230B0C;}
	.st3{fill:#221E20;}
	.st4{fill:#CDC5E1;stroke:#221E20;stroke-miterlimit:10;}
	.st5{fill:#D7ECEF;stroke:#221E20;stroke-miterlimit:10;}
	.st6{fill:#0F0C16;stroke:#221E20;stroke-miterlimit:10;}
	.st7{fill:#FBDFD1;}
	.st8{fill:#4C423E;}
	.st9{fill:#1E080A;}
	.st10{fill:#D19A7B;}
	.st11{fill:#583F41;}
	.st12{fill:#DF7B73;}
</style>
<path class="st0" d="M413.9,218"/>
<path class="st1" d="M504.2,150"/>
<path class="st2" d="M566,147.9"/>
<path class="st1" d="M535.8,167.6"/>
<path class="st3" d="M488.6,181.9"/>
<g>
	<path class="st0" d="M223.7,264.9c-10.4-9-19.2-16.7-25.9-22.6c-7.1-6.2-18.9-17.3-18.9-17.3s-2.9-2.3-3.1-2.5
		c-6.8-5.5-13.2-10.7-13.5-17.7c0-0.5,0-0.9,0-1.2c0.2-3.2,2.3-9.1,15.3-22.7c6.2-6.5,15.4-15.2,27.6-24.3c4,4,8,8,12,12L189.4,206
		c7.6,5.2,14.2,9.3,19.3,12.3c10.1,5.9,14.5,7.7,17,8.6c5.9,2.2,11,3.4,14.6,4c1.5,0.4,7.1,1.9,10.3,7.3c1.3,2.1,1.8,4.2,2,5.6
		c1.1,31,2.2,55.5,3,71.2c1.9,39.2,3.2,55.5-7.6,63.9c-8,6.2-21.5,7.2-28.9,1.3c-8.8-7-6.1-21.5-1-64.5
		C220.7,292.9,222.6,274.8,223.7,264.9z"/>
	<path class="st0" d="M309.8,256.5c9.7-6.7,21.5-15.4,34.2-26.3c19.5-16.7,21.7-21.8,21.3-26.3c-0.7-7.1-8.6-12.4-24.6-22.6
		c-9.5-6.1-17.8-10.4-23.9-13.3c-4,3.6-8,7.1-12,10.6l30.3,27.6c-5.4,5.3-10.5,9.1-14.3,11.6c-3.1,2.1-5.7,3.8-9.6,5.6
		c-4.1,1.9-7.7,2.9-14.6,5c-7.5,2.2-8.6,2.2-10.6,3.7c-1.8,1.3-5,4.2-6.6,10.3c0.3,30.4-0.3,55.4-1,73.2
		c-1.4,35.9-3.4,53.3,8.3,62.9c7.8,6.4,21.3,8.9,28.9,3.3c9.9-7.3,5.4-25.2-0.7-76.8C312.3,284.3,310.8,267.4,309.8,256.5z"/>
	<path class="st0" d="M176.8,248.9"/>
	<path class="st0" d="M337.1,251.2"/>
	<path class="st0" d="M337.4,260.2"/>
	<path class="st0" d="M169.1,244.2"/>
	<path class="st0" d="M172.4,245.6"/>
	<path class="st0" d="M196.1,250.6"/>
	<path class="st0" d="M198.1,256.9"/>
	<path class="st0" d="M177.8,228.9"/>
	<path class="st0" d="M169.5,283.1"/>
	<path class="st0" d="M182.1,294.1"/>
	<path class="st0" d="M203,265.9"/>
	<path class="st0" d="M370.3,246.2"/>
	<path class="st0" d="M389.9,213.6"/>
	<path class="st0" d="M350,233.3"/>
	<path class="st0" d="M354,262.2"/>
	<path class="st0" d="M345.7,339.7"/>
	<path class="st0" d="M339,388.9"/>
	<path class="st0" d="M293.8,399.9"/>
	<path class="st4" d="M250.6,238.2c5.3,1.1,10.6,2.2,16,3.3c4.9-1.3,9.8-2.6,14.6-3.9c-1.2,39.8-2.5,79.5-3.7,119.3
		c-3.3,0-6.6,0-9.9,0.1c-3.6-0.1-7.2-0.2-10.9-0.4C254.7,317.2,252.6,277.7,250.6,238.2z"/>
	<path class="st5" d="M277.1,237.6"/>
	<path class="st4" d="M386.9,264.2"/>
	<path class="st4" d="M366.6,374.6"/>
	<path class="st6" d="M219,380.2c-1.2,8-2.1,17.4-2,27.9c0,9.9,0.9,18.7,2,26.3c2,14.4,4,28.8,6,43.2c-0.8,6.8-1,12.4-1,16.3
		c0,3.3,0.1,4.3,1,18.9c0.5,8.4,0.6,10.5,1,14.3c1.5,15.1,3.4,16.9,4.6,17.6c0.9,0.5,4.4,2.4,12.1-1.6l4.7-56.5
		c2.8-14.6,5.5-29.3,8.3-43.9c2.1-5.4,4.4-13.3,5-23c0.5-8-0.3-14.9-1.3-20c4.2,0.3,8.4,0.7,12.6,1c-0.8,6.1-1.2,13.1-1,21
		c0.5,14.1,3.2,25.9,6,34.9c1,3.3,2.4,7.6,3.7,12.6c1.6,6.1,2.5,11.2,3.3,15c2.8,11.9,2.4,16,4.7,30.9c0.9,6.2,2.5,15.4,5,26.6
		c4.9,0,9.8,0,14.6,0c1.5-8.1,2.6-18.9,1.7-31.6c-0.8-11.2-3.1-20.7-5.3-27.9c2.9-15.7,5.2-33.5,6.3-53.2c0.9-16.3,0.8-31.3,0.1-45
		c-11.1-9.1-22.3-18.2-33.4-27.2l-20.8-0.3L219,380.2z"/>
	<path class="st6" d="M230.6,441.8"/>
	<path class="st6" d="M363.3,486.3"/>
	<path class="st6" d="M362.3,463"/>
	<path class="st7" d="M230.6,544.8c-0.5,4.1-0.7,9.3,0.1,15.3c1.2,9.2,4.2,16.3,6.6,21c0.5,3.5,0.9,7.2,1.2,11.1
		c0.1,1.4,0.1,2.8,0.2,4.2c0.7,1.2,1.6,2.6,2.9,4.1c1.1,1.3,2.3,2.4,3.3,3.2c1.8-0.2,2.5-1,2.8-1.3c0.5-0.6,0.6-1.6,0.8-3.6
		c0.3-2.4,0.4-2.6,0.2-3c-0.3-1-0.8-1.3-1.6-2.7c-0.6-1-0.8-1.7-1.3-3.2c-1.5-4.3-1.5-9.1-1.5-9.1c-0.1-8.8,0.6-16.4,0.4-22.6
		c-0.1-3.4-0.5-8.6-2.1-15C238.6,543.7,234.6,544.3,230.6,544.8z"/>
	<path class="st7" d="M261.9,581.4"/>
	<path class="st7" d="M293.5,541.9c-1.2,4.9-2.2,11.2-2.3,18.6c-0.1,8.2,1,15.1,2.2,20.3c-0.4,0.9-1.1,2.3-1.8,3.9
		c-1.2,2.6-1.7,3.8-2.2,5c-0.4,0.9-1.8,4.9-1.8,10.3c0,1.7,0.1,4,0.7,6.7c1.4-0.6,3.5-1.7,5.5-3.7c2.1-2.1,3.3-4.2,3.9-5.6
		c0.5-2.3,0.9-5.3,0.9-8.8c-0.1-2.8-0.4-5.2-0.9-7.2c2.6-5,5.5-11.6,7.6-19.7c2-7.6,2.7-14.4,2.9-19.8
		C303.2,541.9,298.4,541.9,293.5,541.9z"/>
	<path class="st3" d="M238.3,606.9c1,5.9,4.5,13.2,7.3,12.9c2.9-0.3,4.2-8.2,4.6-11.7c0.5-5.3-0.6-9.7-1.5-12.4
		c-0.6,0.9-1.4,2.4-2.1,4.3c-0.7,2.1-0.8,3.2-1.4,3.4c-0.6,0.2-1.7-0.5-4.1-4.6c-0.8-0.8-1.6-1.6-2.4-2.5
		C238.1,598.8,237.6,602.5,238.3,606.9z"/>
	<path class="st3" d="M285.3,617.2c2.4,1.5,6.8-1.8,7.6-2.4c0.3-0.2,2.4-1.8,3.9-4.2c4.5-7,1.9-17.9,1.5-19.4
		c-5,8.6-6.9,11.6-7.3,12.3c-0.3,0.5-0.8,1-1.3,1.9c-0.1,0.1-0.2,0.4-0.5,0.7c-0.2,0.2-0.7,0.8-0.9,0.8c-0.4,0-0.8-2.4-1-11.1
		c-1.2,1.9-2.4,4.4-3.3,7.3c-0.4,1.3-0.7,2.5-0.9,3.6c0,1.2,0,3,0.2,5.1C284,614.9,284.2,616.5,285.3,617.2z"/>
	<path class="st3" d="M308.9,608.6"/>
	<path class="st3" d="M257.6,603.1"/>
	<path class="st7" d="M318.3,596.1"/>
	<path class="st7" d="M326.6,580.1"/>
	<path class="st7" d="M242.6,231.3c2.1-1.3,4.5-2.7,7.3-4.1c2.5-1.2,4.9-2.1,7-2.8c-0.3-1.9-0.5-4.2-0.5-6.7c0-2.6,0.2-4.9,0.5-6.9
		c-4.1-3.1-11.4-9.4-16-19.9c-0.6-1.5-3.5-8.2-4.1-17.6c-0.3-4.8-0.6-10.8,2.2-18c2.7-7,7-11.2,9-13.2c3.1-3,6.3-6,11.4-7
		c0.7-0.1,3.2-0.6,6.5,0c7.6,1.3,12.3,7.1,14.7,10c6.5,7.8,8,16.2,8.6,20.2c1.7,10.3-0.4,18.5-1.2,21.3
		c-3.9,13.2-12.5,20.9-16.1,23.8c0.2,2.4,0.4,4.9,0.5,7.6c0.1,2.6,0.1,5,0,7.3c2.3,0.9,4.8,1.9,7.4,3.3c2,1.1,3.9,2.2,5.5,3.2
		c-1.9,3.9-3.8,5.1-5.1,5.5c-0.5,0.1-1.5,0.3-3,0.8c-1.4,0.4-2.4,0.9-3.1,1.2c-2.5,0.7-5,1.4-7.5,2.1c-2.8-0.6-5.6-1.1-8.4-1.7
		c-1.6-0.1-4.3-0.5-7.2-2.1c-1.7-0.9-2.9-2-3.8-2.9C245.6,233.6,244.1,232.5,242.6,231.3z"/>
	<path class="st2" d="M229.1,228.1c-1.3-11.4-2.6-23-4.4-39.1c-1.6-13.9-2.7-25.3,3.5-32.3c1.4-1.6,3-2.7,4.2-5.5
		c2.8-6.4-1.1-11.4,1.9-16.4c0.8-1.3,2.3-3.1,5.4-4.4l1.8-2.4c2.1-1.5,4.7-2.9,7.6-4.1c12.4-4.9,24.1-1.7,29,0
		c3.2,2.1,6.4,4.1,9.5,6.2c5.1,2.7,6.8,5.5,7.4,7.6c0.6,2,0.4,3.9,1.8,7.1c0.9,2,1.7,2.8,2.3,3.9c1.2,2.2,2.2,5.8,0.4,12
		c-1.5,3.6-2.9,8.6-0.6,12.4c1.6,2.6,4.2,3.6,5.1,4.1c4.4,2.3,7.2,12.8,0.4,48.5c-6.4,2.1-12.8,4.1-19.2,6.2
		c-2.8-1.6-5.7-3.1-8.5-4.7c-1.5-0.6-3-1.2-4.5-1.9l-0.5-15c4.8-5.2,13.6-16.4,15.6-32.5c0.6-5.1,1.7-14-2.7-23.5
		c-0.9-1.9-8.7-18.6-21-18.5c-6.4,0.1-11.3,4.6-14.6,7.6c-1,0.9-5.6,5.2-8.8,12.8c-5.3,12.6-2.7,24.5-1.5,28.9
		c4.1,14.9,14.6,23.1,18,25.5v13.6l-14.3,6.9C238.1,230.3,233.6,229.2,229.1,228.1z"/>
	<path class="st8" d="M189.2,131.8"/>
	<path class="st7" d="M208.6,159.3c0-1.8,2.7-3.4,7.5-6.1c0.9-0.5,2.1-1.1,3.9-2.2c1.4-0.9,2.6-1.6,3.3-2.1c0.2-0.1,0.5-0.3,0.6-0.5
		c0.1-0.1,0.1-0.3,0.1-0.3c0-0.4,0.6-9.9,3.9-14.5c0.4-0.6,0.7-0.9,1-1.1c1.4-1.4,3.1-1.9,4.1-2.2l0,0c-0.5,0.3,1-0.6,1.4-1
		c1.1-0.8,1.2-0.9,1.7-1.3c0.2-0.2,1-0.6,2.6-1.2c1.6-0.5,4.6-1.6,5-0.9c0.4,0.8-2.6,3.4-4.2,4.7c-2.9,2.3-4.3,2.4-5.4,4.4
		c-0.6,1.1-0.7,2.1-0.9,4.1c-0.4,4.1,0.5,5.3,0,8.7c-0.3,2.2-1,3.8-1.4,4.5c-0.4,0.9-1.8,3.8-5.3,6.8c-5.8,4.9-13.8,5.1-13.8,5.3
		c0,0,0.1,0,0.6-0.1C213.4,164.2,208.7,161.7,208.6,159.3z"/>
	<path class="st7" d="M313.2,169.8c-0.4-1.2-2.3-0.6-4.1-2c-4.9-3.9,1.9-15.3-3.3-21.1c-1-1.2-2.6-2.1-3.7-4.5
		c-0.5-1.1-0.8-2.2-1.8-4.5c-0.9-1.9-1.2-2.3-1.5-2.5c-1.5-1.3-4.3-1.5-5.3-0.4c-1,1.2,0.4,4.2,3.3,10.1c2,4.2,2.6,4.8,3.1,6.7
		c1,3.6,0.3,6.9-0.4,9.2c-0.3,0.4-3.5,4.6-1.9,9.9c1.7,5.6,7.1,7.2,7.5,7.3C309.6,175.2,313.9,171.8,313.2,169.8z"/>
	<path class="st7" d="M218.9,164.6"/>
	<path class="st9" d="M241.6,159.8c3.1-3.1,5.9-4.6,8-5.4c1.7-0.7,5.5-2,5.5-2l0,0c0,0,1-0.4,1.5-1.1c0.4-0.6,0.4-1.6,0-2.1
		c-0.2-0.2-0.5-0.6-1.6-0.6c-1.6-0.1-3,0.4-3.5,0.7c-2.7,1.3-4.6,2.8-4.9,3c-2.4,2-4,3.2-4.7,5.5
		C241.7,158.6,241.6,159.3,241.6,159.8z"/>
	<path class="st3" d="M267.7,149.9c0.2-1.2,1.5-1.8,1.7-1.8c0,0,1-0.4,3,0l0,0c0.2,0.1,0.5,0.1,0.9,0.2c1,0.3,3,0.8,5,2
		c1.6,0.9,2.7,1.9,3.8,3c1.4,1.3,3.3,3.3,3,3.6c-0.2,0.2-1.4-0.7-5.3-3c-1.6-0.9-2.2-1.2-3.2-1.6c-1.8-0.6-3.4-0.6-3.7-0.6
		c-2.7-0.1-3.9,0.8-4.8,0C267.7,151.3,267.6,150.5,267.7,149.9z"/>
	<path class="st3" d="M320.4,202.1"/>
	<path class="st3" d="M194.5,140.5"/>
	<g>
		<path class="st1" d="M267.7,167.1c-0.2-2.3,3.8-5.9,4.9-6.1c0.5-0.1,0.9-0.1,1.7-0.2c0.7-0.1,2.1-0.2,4,0c1.6,0.1,2.5,0.2,2.7,0.5
			c0.8,1.1-1,4.4-3.5,6C273.5,169.7,268.4,167.4,267.7,167.1z"/>
		<path class="st1" d="M307,168.9"/>
		<path class="st3" d="M269.2,163.8c-0.1-0.1,0.4-0.6,2.6-2.8c0,0,0,0,0,0c0.8-0.4,2-0.9,3.6-1.1c2.9-0.4,5.1,0.4,6.2,0.9
			c1,0.3,2.1,0.6,3.1,0.9c-5,4.1-6.9,5.4-7,5.3c-0.2-0.2,3.9-3.5,3.1-5.2c-0.4-0.9-2.1-1-3.1-1.1c-0.6-0.1-2-0.1-4,0.6
			C270.9,162.4,269.3,163.9,269.2,163.8z"/>
		<path class="st3" d="M283.7,165.5"/>
		<path class="st1" d="M284.8,165.9"/>
		<path class="st3" d="M272.2,163.7c-0.1,0.3-0.2,0.9,0,1.7c0,0.1,0.3,1.1,1.2,1.6c0.4,0.2,0.7,0.2,1.2,0.2c0.4,0,1,0,1.8-0.3
			c0.2-0.1,0.6-0.3,0.9-0.8c0.4-0.6,0.5-1.2,0.5-1.4c0-0.3,0.1-1.1-0.4-1.9c-0.4-0.8-1.1-1.1-1.4-1.2c-0.2-0.1-1.2-0.5-2.3,0
			C273.8,161.6,272.5,162.2,272.2,163.7z"/>
		<path class="st1" d="M274.5,163.1c0.4-0.1,0.8,0,1,0.1c0.2,0.1,0.4,0.2,0.6,0.5c0.2,0.3,0.1,0.6,0.1,0.8c0,0.3,0,0.5-0.2,0.7
			c-0.3,0.4-0.8,0.4-1.1,0.4s-0.6,0-0.9-0.3c-0.3-0.2-0.3-0.6-0.4-0.7c0-0.1-0.1-0.6,0.2-1C274.1,163.3,274.4,163.2,274.5,163.1z"/>
		<path class="st1" d="M271.3,162.3"/>
	</g>
	<g>
		<path class="st1" d="M257.6,167.3c0.2-2.3-3.8-5.9-4.9-6.1c-0.5-0.1-0.9-0.1-1.7-0.2c-0.7-0.1-2.1-0.2-4,0
			c-1.6,0.1-2.5,0.2-2.7,0.5c-0.8,1.1,1,4.4,3.5,6C251.8,169.9,256.9,167.6,257.6,167.3z"/>
		<path class="st3" d="M256.1,164c0.1-0.1-0.4-0.6-2.6-2.8c0,0,0,0-0.1,0c-0.8-0.4-2-0.9-3.6-1.1c-2.3-0.3-4.2,0.1-5.3,0.5
			c-1.3,0.3-2.6,0.6-3.9,0.9c5,4.4,6.8,5.8,6.9,5.8c0.1-0.1-3.7-3.1-3-4.9c0.4-1.1,2.3-1.3,3-1.4c0.5-0.1,1.8-0.1,4,0.6
			C254.4,162.6,256,164.2,256.1,164z"/>
		<path class="st3" d="M241.6,165.8"/>
		<path class="st1" d="M240.6,166.1"/>
		<path class="st3" d="M253.2,164c0.1,0.3,0.2,0.9,0,1.7c0,0.1-0.3,1.1-1.2,1.6c-0.4,0.2-0.7,0.2-1.2,0.2c-0.4,0-1.1,0-1.8-0.3
			c-0.2-0.1-0.6-0.3-0.9-0.8c-0.4-0.6-0.5-1.2-0.5-1.4c0-0.3-0.1-1.1,0.4-1.9c0.4-0.8,1.1-1.1,1.4-1.2c0.2-0.1,1.2-0.5,2.3,0
			C251.6,161.9,252.8,162.5,253.2,164z"/>
		<path class="st1" d="M250.8,163.4c-0.4-0.1-0.8,0-1,0.1c-0.2,0.1-0.4,0.2-0.6,0.5c-0.2,0.3-0.1,0.6-0.1,0.8c0,0.3,0.1,0.5,0.2,0.7
			c0.3,0.4,0.8,0.4,1.1,0.4c0.2,0,0.6,0,0.9-0.3c0.3-0.2,0.3-0.6,0.4-0.7c0-0.1,0.1-0.6-0.2-1C251.2,163.5,250.9,163.4,250.8,163.4z
			"/>
		<path class="st1" d="M254.1,162.5"/>
		<path class="st3" d="M271.5,152.7"/>
	</g>
	<path class="st3" d="M283.6,160.6"/>
</g>
<path class="st10" d="M261.2,172.4c-1,3.2-2,5.6-2.7,7.3c-0.7,1.6-1.4,2.9-0.8,3.7c0.8,1.1,3.5,1.1,3.5,1.1l0,0c0,0-0.9-0.6-2.6-1.8
	C259.4,179.3,260.3,175.9,261.2,172.4z"/>
<path class="st1" d="M643.6,186.5"/>
<path class="st7" d="M237.9,554.8"/>
<path class="st7" d="M276.9,552.2"/>
<path class="st7" d="M246.7,610.3"/>
<g>
	<path class="st11" d="M264,199.4c-2.6,0-4.8-0.4-6.4-0.9c-0.4,0-0.8-0.1-1.1-0.1c-0.1-0.9-0.1-1.7-0.1-2.3c0-1.7,0.2-2.2,0.5-2.5
		c0.2-0.2,0.5-0.3,0.7-0.4c0.8-0.3,1.5-0.2,1.8-0.2c1,0.1,2.4,0.1,4.2,0.1c2.5,0,5.1-0.1,7.6-0.1c0.1,0.1,0.4,0.3,0.7,0.8
		c0.5,0.8,0.5,1.5,0.5,2c0,0.4,0,0.9-0.2,1.5c-0.5,0.4-1.3,1-2.4,1.4C268.1,199.5,266.6,199.4,264,199.4z"/>
	<path class="st1" d="M256.6,193.6c0.2-0.4,0.7-1.2,1.6-1.8c0.2-0.2,0.8-0.5,1.8-0.8c1.4-0.3,1.8,0,3.9,0.1c2.2,0,2.9-0.2,4.3,0.2
		c0.5,0.2,1,0.4,1.2,0.6c0.1,0.2,0.3,0.5,0.7,0.8c0.4,0.3,0.8,0.4,1,0.4C266.3,193.2,261.4,193.4,256.6,193.6z"/>
	<path class="st1" d="M256.4,198.4c0.5,0.6,1.2,1.4,2.2,2.1c0.7,0.5,1.3,0.9,2.1,1.2c1,0.3,1.3,0.1,3.8,0.2c1.8,0.1,1.6,0.2,2.2,0.1
		c0.5-0.1,2.4-0.3,3.9-1.8c1-1,1.4-2.2,1.5-2.8c-2.8,0.6-5.6,1.3-8.4,1.9C261.4,199,258.9,198.7,256.4,198.4z"/>
	<path class="st12" d="M256.4,195.1c-0.2-0.3-1.5-2.5-0.5-4.5c0.4-0.9,1.1-1.3,1.4-1.6c1.1-0.8,2.3-0.9,6.1-0.8
		c4.9,0.1,5.8,0.5,6.6,0.9c0.8,0.4,1.8,1,2.4,2.2c0.9,1.9,0.1,3.8-0.1,4.2c-0.8-1.4-1.7-2.4-2.3-2.9c-0.6-0.5-1.1-1-2-1.3
		c-0.3-0.1-0.6-0.2-3.3-0.3c-3.4-0.1-2.9,0.1-3.9,0c-0.2,0-0.6-0.1-1,0c0,0-1,0.1-1.8,0.8c-0.3,0.2-0.5,0.4-0.5,0.4
		s-0.1,0.1-0.2,0.2C257.3,192.7,256.9,193.7,256.4,195.1z"/>
	<path class="st12" d="M256.4,198.4c-0.1,0.6-0.6,2.8,0.7,4.2c0.3,0.3,0.6,0.5,1,0.8c1.4,0.8,2.8,1.1,3.8,1.2c2,0.3,4.6,0.6,7.4-0.2
		c0.9-0.3,1.6-0.6,2.2-1.2c0.7-0.8,0.9-1.6,1-2.2c0.4-1.6,0-2.9-0.3-3.5c-0.2,0.6-0.5,1.8-1.5,2.8c-0.2,0.2-0.7,0.7-1.5,1.1
		c-0.2,0.1-1.1,0.6-2.4,0.7c-0.9,0.1-1.6,0-2.2-0.1c-1,0.2-2.4,0.3-3.8-0.2c-0.9-0.3-1.6-0.8-2.1-1.2
		C257.6,199.7,256.9,199,256.4,198.4z"/>
	<path class="st12" d="M259.2,189.5"/>
</g>
</svg>
