<?xml version="1.0" encoding="utf-8"?>
<!-- Generator: Adobe Illustrator 25.4.1, SVG Export Plug-In . SVG Version: 6.00 Build 0)  -->
<svg version="1.1" id="Layer_1" xmlns="http://www.w3.org/2000/svg" xmlns:xlink="http://www.w3.org/1999/xlink" x="0px" y="0px"
	 viewBox="0 0 595.3 841.9" style="enable-background:new 0 0 595.3 841.9;" xml:space="preserve">
<style type="text/css">
	.st0{fill:#EE7F7F;stroke:#221E20;stroke-miterlimit:10;}
	.st1{fill:#FFFFFF;}
	.st2{fill:#230B0C;}
	.st3{fill:#221E20;}
	.st4{fill:#CDC5E1;stroke:#221E20;stroke-miterlimit:10;}
	.st5{fill:#D7ECEF;stroke:#221E20;stroke-miterlimit:10;}
	.st6{fill:#0F0C16;stroke:#221E20;stroke-miterlimit:10;}
	.st7{fill:#FBDFD1;}
	.st8{fill:#FBDFD1;stroke:#221E20;stroke-miterlimit:10;}
	.st9{fill:#4C423E;}
	.st10{fill:#1E080A;}
	.st11{fill:#D19A7B;}
	.st12{fill:#FAC9A2;}
	.st13{fill:#EE7F7F;stroke:#221E20;stroke-width:0.75;stroke-miterlimit:10;}
	.st14{fill:#FBDFD1;stroke:#221E20;stroke-width:0.25;stroke-miterlimit:10;}
	.st15{fill:#DF7B73;stroke:#221E20;stroke-width:0.25;stroke-miterlimit:10;}
	.st16{fill:#FFFFFF;stroke:#221E20;stroke-width:3;stroke-miterlimit:10;}
	.st17{fill:#1D1D1B;}
</style>
<g id="thinking">
	<path class="st0" d="M429.2,294.9"/>
	<path class="st1" d="M519.6,226.9"/>
	<path class="st2" d="M581.3,224.8"/>
	<path class="st1" d="M551.1,244.5"/>
	<path class="st3" d="M503.9,258.8"/>
	<g>
		<path class="st0" d="M192.7,327.1"/>
		<path class="st0" d="M353,329.4"/>
		<path class="st0" d="M353.3,338.4"/>
		<path class="st0" d="M185.1,322.4"/>
		<path class="st0" d="M188.4,323.8"/>
		<path class="st0" d="M212,328.7"/>
		<path class="st0" d="M214,335.1"/>
		<path class="st0" d="M193.7,307.1"/>
		<path class="st0" d="M185.4,361.3"/>
		<path class="st0" d="M198,372.3"/>
		<path class="st0" d="M219,344"/>
		<path class="st0" d="M386.2,324.4"/>
		<path class="st0" d="M405.9,291.8"/>
		<path class="st0" d="M366,311.5"/>
		<path class="st0" d="M369.9,340.4"/>
		<path class="st0" d="M361.6,417.9"/>
		<path class="st0" d="M355,467.1"/>
		<path class="st0" d="M309.8,478.1"/>
		<path class="st4" d="M266.5,316.4c5.3,1.1,10.6,2.2,16,3.3c4.9-1.3,9.8-2.6,14.6-3.9c-1.2,39.8-2.5,79.5-3.7,119.3
			c-3.3,0-6.6,0-9.9,0.1c-3.6-0.1-7.2-0.2-10.9-0.4C270.6,395.3,268.6,355.9,266.5,316.4z"/>
		<path class="st5" d="M293.1,315.8"/>
		<path class="st4" d="M402.9,342.4"/>
		<path class="st4" d="M382.6,452.8"/>
		<path class="st6" d="M234.9,458.4c-1.2,8-2.1,17.4-2,27.9c0,9.9,0.9,18.7,2,26.3c2,14.4,4,28.8,6,43.2c-0.8,6.8-1,12.4-1,16.3
			c0,3.3,0.1,4.3,1,19c0.5,8.4,0.6,10.5,1,14.3c1.5,15.1,3.4,16.9,4.6,17.6c0.9,0.5,4.4,2.4,12.1-1.6l4.7-56.5
			c2.8-14.6,5.5-29.3,8.3-43.9c2.1-5.4,4.4-13.3,5-23c0.5-8-0.3-14.9-1.3-20c4.2,0.3,8.4,0.7,12.6,1c-0.8,6.1-1.2,13.1-1,21
			c0.5,14.1,3.2,25.9,6,34.9c1,3.3,2.4,7.6,3.7,12.6c1.6,6.1,2.5,11.2,3.3,15c2.8,11.9,2.4,16,4.7,30.9c0.9,6.2,2.5,15.4,5,26.6
			c4.9,0,9.8,0,14.6,0c1.5-8.1,2.6-18.9,1.7-31.6c-0.8-11.2-3.1-20.7-5.3-27.9c2.9-15.7,5.2-33.5,6.3-53.2c0.9-16.3,0.8-31.3,0.1-45
			c-11.1-9.1-22.3-18.2-33.4-27.2l-20.8-0.3L234.9,458.4z"/>
		<path class="st6" d="M246.6,520"/>
		<path class="st6" d="M379.3,564.5"/>
		<path class="st6" d="M378.3,541.2"/>
		<path class="st7" d="M246.5,623c-0.5,4.1-0.7,9.3,0.1,15.3c1.2,9.2,4.2,16.3,6.6,21c0.5,3.5,0.9,7.2,1.2,11.1
			c0.1,1.4,0.1,2.8,0.2,4.2c0.7,1.2,1.6,2.6,2.9,4.1c1.1,1.3,2.3,2.4,3.3,3.2c1.8-0.2,2.5-1,2.8-1.3c0.5-0.6,0.6-1.6,0.8-3.6
			c0.3-2.4,0.4-2.6,0.2-3c-0.3-1-0.8-1.3-1.6-2.7c-0.6-1-0.8-1.7-1.3-3.2c-1.5-4.3-1.5-9.1-1.5-9.1c-0.1-8.8,0.6-16.4,0.4-22.6
			c-0.1-3.4-0.5-8.6-2.1-15C254.5,621.9,250.5,622.5,246.5,623z"/>
		<path class="st7" d="M277.8,659.6"/>
		<path class="st7" d="M309.4,620.1c-1.2,4.9-2.2,11.2-2.3,18.6c-0.1,8.2,1,15.1,2.2,20.3c-0.4,0.9-1.1,2.3-1.8,3.9
			c-1.2,2.6-1.7,3.8-2.2,5c-0.4,0.9-1.8,4.9-1.8,10.3c0,1.7,0.1,4,0.7,6.7c1.4-0.6,3.5-1.7,5.5-3.7c2.1-2.1,3.3-4.2,3.9-5.6
			c0.5-2.3,0.9-5.3,0.9-8.8c-0.1-2.8-0.4-5.2-0.9-7.2c2.6-5,5.5-11.6,7.6-19.7c2-7.6,2.7-14.4,2.9-19.8
			C319.2,620.1,314.3,620.1,309.4,620.1z"/>
		<path class="st3" d="M254.2,685.1c1,5.9,4.5,13.2,7.3,12.9c2.9-0.3,4.2-8.2,4.6-11.7c0.5-5.3-0.6-9.7-1.5-12.4
			c-0.6,0.9-1.4,2.4-2.1,4.3c-0.7,2.1-0.8,3.2-1.4,3.4c-0.6,0.2-1.7-0.5-4.1-4.6c-0.8-0.8-1.6-1.6-2.4-2.5
			C254,677,253.5,680.7,254.2,685.1z"/>
		<path class="st3" d="M301.2,695.4c2.4,1.5,6.8-1.8,7.6-2.4c0.3-0.2,2.4-1.8,3.9-4.2c4.5-7,1.9-17.9,1.5-19.4
			c-5,8.6-6.9,11.6-7.3,12.3c-0.3,0.5-0.8,1-1.3,1.9c-0.1,0.1-0.2,0.4-0.5,0.7c-0.2,0.2-0.7,0.8-0.9,0.8c-0.4,0-0.8-2.4-1-11.1
			c-1.2,1.9-2.4,4.4-3.3,7.3c-0.4,1.3-0.7,2.5-0.9,3.6c0,1.2,0,3,0.2,5.1C299.9,693.1,300.1,694.7,301.2,695.4z"/>
		<path class="st3" d="M324.8,686.8"/>
		<path class="st3" d="M273.5,681.3"/>
		<path class="st7" d="M334.2,674.3"/>
		<path class="st7" d="M342.5,658.3"/>
		<path class="st8" d="M258.5,309.5c2.1-1.3,4.5-2.7,7.3-4c2.5-1.2,4.9-2.1,7-2.8c-0.3-1.9-0.5-4.2-0.5-6.7c0-2.6,0.2-4.9,0.5-6.9
			c-4.1-3.1-11.4-9.4-16-20c-0.6-1.5-3.5-8.2-4.1-17.6c-0.3-4.8-0.6-10.8,2.2-18c2.7-7,7-11.2,9-13.2c3.1-3,6.3-6,11.4-7
			c0.7-0.1,3.2-0.6,6.5,0c7.6,1.3,12.3,7.1,14.7,10c6.5,7.8,8,16.2,8.6,20.2c1.7,10.3-0.4,18.5-1.2,21.3
			c-3.9,13.2-12.5,20.9-16.1,23.8c0.2,2.4,0.4,4.9,0.5,7.6c0.1,2.6,0.1,5,0,7.3c2.3,0.9,4.8,1.9,7.4,3.3c2,1.1,3.9,2.2,5.5,3.2
			c-1.9,3.9-3.8,5.1-5.1,5.5c-0.5,0.1-1.5,0.3-3,0.8c-1.4,0.4-2.4,0.9-3.1,1.2c-2.5,0.7-5,1.4-7.5,2c-2.8-0.6-5.6-1.1-8.4-1.7
			c-1.6-0.1-4.3-0.5-7.2-2.1c-1.7-1-3-2-3.8-2.9C261.5,311.8,260,310.7,258.5,309.5z"/>
		<path class="st2" d="M244.6,309c-3.4-7.8-7.5-19.2-9.1-33.5c-1.5-12.7-0.4-21.6,1.3-35c0.9-7.4,2-12.2,4.7-17.3
			c2.9-5.6,7.2-10.2,8.4-11.5c2-2.2,3.9-3.9,5.3-5.1c1.2-0.7,2.4-1.3,3.6-2c1.9-0.7,4-1.3,6.2-1.9c11.4-2.8,21.7-1.7,29,0
			c3.2,2.1,6.4,4.1,9.5,6.2c1.8,1.1,4.5,3.8,7.4,7.6c3.1,4.1,4.7,7.9,5.3,9.3c0.6,1.4,0.7,1.9,2.4,7.5c1,3.3,1.9,6,2.4,7.8
			c1,2.5,2.4,5.9,3.5,10.2c3.6,13.2,2.9,23.9,2.4,29.9c-0.9,11.5-3.6,21.2-6.5,28.6c-6.5,0.3-13,0.6-19.4,0.8
			c-2.8-1.6-5.7-3.1-8.5-4.7c-1.5-0.6-3-1.2-4.5-1.9l-0.5-15c4.8-5.2,13.6-16.4,15.6-32.5c0.6-5.1,1.7-14-2.7-23.5
			c-0.9-1.9-8.7-18.6-21-18.5c-6.4,0.1-11.3,4.6-14.6,7.6c-1,0.9-5.6,5.2-8.8,12.8c-5.3,12.6-2.7,24.5-1.5,28.9
			c4.1,14.9,14.6,23.1,18,25.5v13.6l-14.3,6.9C253.9,309.7,249.2,309.3,244.6,309z"/>
		<path class="st9" d="M205.1,210"/>
		<path class="st7" d="M234.8,242.8"/>
		<path class="st10" d="M255.6,232.8c4.3-0.8,7.5-0.5,9.7-0.1c1.8,0.4,5.7,1.4,5.7,1.4l0,0c0,0,1.1,0.3,1.8-0.1
			c0.6-0.3,1.2-1.1,1.2-1.8c0-0.3-0.1-0.7-0.9-1.4c-1.3-1.1-2.7-1.3-3.3-1.4c-3-0.4-5.4-0.3-5.8-0.2c-3.1,0.3-5.1,0.5-7,2
			C256.4,231.8,255.9,232.4,255.6,232.8z"/>
		<path class="st3" d="M283.9,233.9c-0.6-1.1,0.1-2.3,0.2-2.5c0,0,0.6-1,2.4-1.8l0,0c0.2-0.1,0.5-0.2,0.9-0.4c1-0.4,2.9-1.1,5.2-1.4
			c1.9-0.2,3.3-0.1,4.9,0.1c1.9,0.2,4.6,0.7,4.6,1c0,0.2-1.5,0.2-6,0.8c-1.8,0.2-2.5,0.4-3.5,0.7c-1.8,0.6-3.1,1.5-3.3,1.7
			c-2.2,1.6-2.6,3-3.8,2.9C284.7,235,284.2,234.4,283.9,233.9z"/>
		<path class="st3" d="M336.4,280.3"/>
		<path class="st3" d="M210.4,218.7"/>
		<g>
			<path class="st1" d="M283.5,243.4c0-2.3,4.4-5.5,5.4-5.6c0.5-0.1,0.9-0.1,1.7-0.1c0.7,0,2.1,0,4,0.4c1.6,0.3,2.4,0.4,2.6,0.7
				c0.7,1.1-1.4,4.3-4,5.6C289,246.5,284.2,243.8,283.5,243.4z"/>
			<path class="st1" d="M322.4,248.9"/>
			<path class="st3" d="M285.2,240.3c-0.1-0.1,0.4-0.6,2.9-2.5c0,0,0,0,0,0c0.9-0.3,2.1-0.7,3.6-0.8c2.9-0.1,5.1,0.9,6.1,1.5
				c1,0.4,2,0.8,3,1.2c-5.4,3.6-7.4,4.8-7.5,4.6c-0.2-0.2,4.2-3.1,3.6-4.9c-0.3-0.9-2-1.2-3-1.4c-0.6-0.1-1.9-0.2-4,0.3
				C287.1,239,285.4,240.4,285.2,240.3z"/>
			<path class="st3" d="M299.5,243.3"/>
			<path class="st1" d="M300.5,243.8"/>
			<path class="st3" d="M288.2,240.5c-0.1,0.3-0.3,0.9-0.1,1.7c0,0.1,0.2,1.1,1.1,1.7c0.4,0.2,0.7,0.3,1.2,0.4
				c0.4,0.1,1,0.1,1.8-0.2c0.3-0.1,0.6-0.3,1-0.7c0.5-0.5,0.6-1.2,0.7-1.4c0.1-0.3,0.2-1.1-0.2-2c-0.4-0.8-1-1.2-1.2-1.3
				c-0.2-0.1-1.1-0.6-2.3-0.2C290,238.5,288.7,239,288.2,240.5z"/>
			<path class="st1" d="M290.6,240.1c0.5-0.1,0.8,0.1,1,0.1c0.1,0.1,0.4,0.2,0.6,0.5c0.1,0.3,0.1,0.6,0,0.9c0,0.3-0.1,0.5-0.3,0.7
				c-0.3,0.3-0.9,0.3-1.1,0.2s-0.6-0.1-0.8-0.4c-0.2-0.3-0.3-0.6-0.3-0.7c0-0.1,0-0.6,0.2-0.9C290.2,240.2,290.5,240.1,290.6,240.1z
				"/>
			<path class="st1" d="M287.5,239"/>
		</g>
		<g>
			<path class="st1" d="M274,243.6c-0.2-2.3-5-4.9-6.1-4.9c-0.5,0-0.9,0-1.7,0.1c-0.7,0.1-2.1,0.3-3.9,0.8c-1.6,0.5-2.4,0.7-2.5,1
				c-0.5,1.2,1.9,4.1,4.6,5.1C268.9,247.4,273.4,244.1,274,243.6z"/>
			<path class="st3" d="M271.9,240.7c0-0.1-0.5-0.5-3.2-2.1c0,0,0,0-0.1,0c-0.9-0.2-2.2-0.4-3.7-0.3c-2.3,0.2-4.1,1-5.1,1.6
				c-1.2,0.6-2.4,1.1-3.6,1.7c5.8,3.2,7.9,4.3,7.9,4.2c0.1-0.1-4.3-2.2-4-4.1c0.2-1.1,2-1.8,2.7-2c0.5-0.2,1.7-0.5,4-0.2
				C269.8,239.7,271.8,240.9,271.9,240.7z"/>
			<path class="st3" d="M257.6,243.9"/>
			<path class="st1" d="M256.5,244.3"/>
			<path class="st3" d="M268.9,241.3c0.1,0.2,0.4,0.9,0.3,1.6c0,0.1-0.1,1.1-0.9,1.8c-0.4,0.3-0.7,0.4-1.1,0.5c-0.4,0.1-1,0.3-1.8,0
				c-0.3-0.1-0.7-0.2-1.1-0.6c-0.5-0.5-0.8-1.1-0.8-1.3c-0.1-0.3-0.3-1.1,0-2c0.3-0.9,0.8-1.3,1.1-1.5c0.2-0.1,1.1-0.7,2.2-0.5
				C266.9,239.6,268.3,239.9,268.9,241.3z"/>
			<path class="st1" d="M266.5,241.2c-0.5-0.1-0.8,0.2-0.9,0.3c-0.1,0.1-0.4,0.3-0.5,0.6s0,0.6,0.1,0.9c0.1,0.2,0.1,0.5,0.3,0.6
				c0.4,0.3,0.9,0.2,1.1,0.1c0.2-0.1,0.6-0.1,0.8-0.4c0.2-0.3,0.2-0.6,0.2-0.7s0-0.6-0.4-0.9C267,241.3,266.6,241.2,266.5,241.2z"/>
			<path class="st1" d="M269.5,239.7"/>
			<path class="st3" d="M287.5,230.9"/>
		</g>
		<path class="st3" d="M299.5,238.8"/>
	</g>
	<path class="st11" d="M276.5,249.3c-1,3.2-2,5.6-2.7,7.3c-0.7,1.6-1.4,2.9-0.8,3.7c0.8,1.1,3.5,1.1,3.5,1.1l0,0
		c0,0-0.9-0.6-2.6-1.8C274.8,256.2,275.7,252.8,276.5,249.3z"/>
	<path class="st12" d="M79.1,135.9c-27.9-4.8-55.8-9.5-83.8-14.3"/>
	<path class="st1" d="M658.9,263.4"/>
	<path class="st7" d="M253.2,631.7"/>
	<path class="st7" d="M292.2,629.1"/>
	<path class="st7" d="M262.1,687.2"/>
	<path class="st0" d="M300.7,308.9c3.1-0.9,7.3-1.7,12.3-1.7c5.7-0.1,10.4,0.8,13.8,1.7l0.2,0.3c0,0,3.1,3.9,3.1,4
		c-2,22.6-4.1,45.2-6.1,67.8c3,18.5,5.6,32.9,8.2,45.3c1.1,5.3,3,13.8,0.2,23.8c-1.5,5.4-3.9,9.5-5.6,12.2
		c-6.4-5.2-12.9-10.5-19.3-15.8c-2.9-2.3-5.7-4.7-8.6-7c-1.8-1.5-3.7-3-5.5-4.5c1-40.2,2.1-80.4,3.2-120.6
		C297.9,312.7,299.3,310.8,300.7,308.9z"/>
	<path class="st0" d="M266,315.1l-8-6.9l-14-1l-14.3,7.4l9.1,63.1c-7.5,34.5-11.1,60.2-10.4,66.2c0.5,4.9,2.2,9,2.2,9
		c1.1,2.6,2.4,4.6,3.2,5.8c12.9-7.9,25.9-15.9,38.8-23.8C270.4,394.9,268.2,355,266,315.1z"/>
	<path class="st13" d="M330.1,313.2c4.9,17.9,8.9,38.4,10.6,61c0.5,5.8,0.7,11.5,0.9,17l0,0c0,0-17.1,4.3-18.6,4.7
		c-8.9,2.2-26.3,3.1-63.6-3.3c-2.4-0.6-4.7-1.2-7.1-1.8c0.3-4,0.7-8,1-12.1c22.2-0.4,44.4-0.8,66.6-1.2c-1.6-14.6-3.2-29.1-4.8-43.7
		L330.1,313.2z"/>
	<path class="st14" d="M253.4,380.2c-4.9-0.8-9.7-1.5-14.6-2.3c-7.6-1.1-12.5,1-14.8,2.2c-2.1,1.1-5.5,2.9-5.6,5.5
		c-0.1,2.8,3.8,5,5.6,6c3,1.7,6,2.2,8.3,2.3c9.2,0.6,17.7-3.8,21-5.6C253.3,385.5,253.4,382.8,253.4,380.2z"/>
	<path class="st13" d="M225.5,316.7c-8.7,7.4-8.5,20.1-8.4,31.3c0,2.1,0.3,17.8,8.5,34.4c2.3,4.7,4.2,7.4,7,7.8
		c4.1,0.5,9-4.5,12.5-12.8c9.3-21.3,18.6-42.6,27.8-64c-5-1.7-10-3.4-15-5.1c-7.4,14.4-14.7,28.8-22.1,43.2v-26.3
		c-0.2-1.4-1.6-9.5-6.2-10.6c-0.3-0.1-0.6-0.1-0.9-0.1C228,314.9,226.8,315.6,225.5,316.7z"/>
	<path class="st14" d="M268.6,311.6l15.9-8.6l1.9-10.9l-11.8-4.7l-2.4,0.3l2.4-3.8l-3.8-2.1l-7.1,5.9l-4.2,5.5
		c0.2,5.2,0.4,10.4,0.5,15.5C263,309.7,265.8,310.6,268.6,311.6z"/>
	<path class="st15" d="M269.6,272.6c0.4-0.4,2.1-2.5,4.4-2.5c1,0,2.1,0.4,2.3,0.4c0.9,0.3,1.6,0.7,2.1,1c0.4-0.3,2.3-1.4,4.8-0.9
		c1.8,0.4,3,1.5,3.4,1.9c-2.5,0.2-5.1,0.5-7.6,0.7h-1.8L269.6,272.6z"/>
	<path class="st15" d="M270,273.7c1.2,2.1,4.1,2.4,6,2.6c1.3,0.1,2.9,0.3,4.8-0.2c3.1-0.8,4.9-2.8,5.7-3.7c-2.5,0.3-5.1,0.6-7.6,0.9
		c-3.1-0.2-6.2-0.4-9.3-0.6C269.7,272.9,269.8,273.3,270,273.7z"/>
</g>
<g id="thought">
	<path class="st16" d="M313.6,210c32.5-14.7,39.2-25.1,38.5-32.1c-0.7-7.5-9.7-9-13.3-20.7c-5-16.1,6.6-31.4,7.4-32.5
		c7.8-10,18.4-13.4,28.2-16.5c11.1-3.5,19.6-3.6,34.6-3.9c14.3-0.2,27.1-0.3,43.3,3.8c13.1,3.4,24,6.3,31.8,16.1
		c6.4,7.9,7.3,16.2,7.5,17.9c1.2,12.3-5.1,21.3-7.2,24.2c-10.2,14.2-27.7,18.1-33.6,19.1c-21,3.6-33.6-6.1-60.2,1.5
		c-0.6,0.2-1.1,0.3-1.5,0.4C363.9,195,338.8,202.5,313.6,210z"/>
	<g>
		<path class="st17" d="M369.5,116.1c-0.3,1.3-0.4,2.2-0.5,2.7l-0.3,2.4h4.9l0-0.3c0.4-3.4,1-5.7,2-6.9c1.2-1.5,2.5-2.2,3.9-2.2
			c0.5,0,1,0.1,1.5,0.3l-1.3,1.3c-0.5-0.3-1-0.5-1.5-0.5c-1,0-1.7,0.5-2.1,1.5c-0.4,1-0.8,3.2-1.1,6.7l-0.1,1.2
			c-0.2,1.5-0.2,2.7-0.2,3.6c0,0.5,0.2,0.8,0.6,0.8c0.3,0,0.7-0.1,1.2-0.4c0,0.1,0,0.2,0,0.2c0,0.2-0.2,0.3-0.5,0.5l-0.5,0.2
			l-2.6,1.2c0-1.1,0.1-2.9,0.4-5.5l0-0.3h-4.9l-0.1,0.8l-0.1,1c-0.1,0.8-0.3,1.4-0.5,1.8c-0.3,0.4-0.8,0.7-1.5,1.1l2.1,0.1l-1,1
			l-3.8-0.2l1.1-1.1l1,0.1c0.5-0.3,0.8-0.7,1-1.1c0.2-0.5,0.3-1.3,0.5-2.5l0.7-6.2h-0.3c-2.4,0-3.7,0.8-3.7,2.4c0,0.5,0.1,1,0.4,1.5
			l-1.4,1.4c-0.1-0.5-0.2-0.9-0.2-1.4c0-1.5,0.6-2.7,1.7-3.6s2.6-1.4,4.5-1.4L369.5,116.1L369.5,116.1z"/>
		<path class="st17" d="M384.7,127.6l-1.3,0.5l0-0.3l0.1-0.7l0.1-0.6l0.4-4l0.1-0.4c0-0.2,0-0.5,0-0.7c0-0.6-0.2-0.8-0.5-0.8
			c-0.5,0-1.2,0.6-1.9,1.7c-0.7,1.1-1.1,2.2-1.2,3.2l-0.2,2.1l-1.3,0.5l0-0.3l0.1-0.7l0.1-0.6l0.5-4.1l0-0.5c0-0.4,0.1-0.7,0.1-0.9
			c0-0.4-0.1-0.6-0.3-0.6c-0.4,0-0.9,0.5-1.4,1.5c-0.1-0.1-0.2-0.2-0.2-0.3c0-0.3,0.3-0.8,1-1.4c0.6-0.6,1.1-0.9,1.5-0.9
			c0.5,0,0.8,0.3,0.8,1c0,0.2,0,0.4,0,0.7l-0.1,0.7l-0.1,0.6l-0.1,0.6l0.2-0.4c1.3-2.1,2.5-3.2,3.7-3.2c0.5,0,0.8,0.4,0.8,1.2
			c0,0.1,0,0.4-0.1,0.8l-0.1,0.8l-0.1,1.1c0.5-1.1,1.2-2.1,1.9-2.8s1.4-1.1,2-1.1c0.6,0,0.9,0.4,0.9,1.1c0,0.3,0,0.7-0.1,1.2
			l-0.5,3.3c-0.1,0.7-0.2,1.2-0.2,1.6c0,0.3,0.1,0.5,0.3,0.5c0.2,0,0.5-0.2,0.8-0.5s0.5-0.7,0.7-1.1c0.2,0.1,0.2,0.2,0.2,0.3
			c0,0.4-0.3,0.9-1,1.5c-0.7,0.6-1.2,0.9-1.6,0.9c-0.5,0-0.8-0.3-0.8-1c0-0.4,0.1-1.1,0.2-2l0.3-2.1c0-0.1,0-0.2,0.1-0.5
			c0-0.1,0-0.3,0.1-0.5s0-0.5,0-0.6c0-0.5-0.2-0.8-0.5-0.8c-0.5,0-1.2,0.5-1.9,1.7c-0.7,1.1-1.1,2.2-1.3,3.2L384.7,127.6z"/>
		<path class="st17" d="M398.9,127.6l-1.3,0.5l0-0.3l0.1-0.7l0.1-0.6l0.4-4l0.1-0.4c0-0.2,0-0.5,0-0.7c0-0.6-0.2-0.8-0.5-0.8
			c-0.5,0-1.2,0.6-1.9,1.7c-0.7,1.1-1.1,2.2-1.2,3.2l-0.2,2.1l-1.3,0.5l0-0.3l0.1-0.7l0.1-0.6l0.5-4.1l0-0.5c0-0.4,0.1-0.7,0.1-0.9
			c0-0.4-0.1-0.6-0.3-0.6c-0.4,0-0.9,0.5-1.4,1.5c-0.1-0.1-0.2-0.2-0.2-0.3c0-0.3,0.3-0.8,1-1.4c0.6-0.6,1.1-0.9,1.5-0.9
			c0.5,0,0.8,0.3,0.8,1c0,0.2,0,0.4,0,0.7l-0.1,0.7l-0.1,0.6l-0.1,0.6l0.2-0.4c1.3-2.1,2.5-3.2,3.7-3.2c0.5,0,0.8,0.4,0.8,1.2
			c0,0.1,0,0.4-0.1,0.8l-0.1,0.8l-0.1,1.1c0.5-1.1,1.2-2.1,1.9-2.8s1.4-1.1,2-1.1c0.6,0,0.9,0.4,0.9,1.1c0,0.3,0,0.7-0.1,1.2
			l-0.5,3.3c-0.1,0.7-0.2,1.2-0.2,1.6c0,0.3,0.1,0.5,0.3,0.5c0.2,0,0.5-0.2,0.8-0.5s0.5-0.7,0.7-1.1c0.2,0.1,0.2,0.2,0.2,0.3
			c0,0.4-0.3,0.9-1,1.5c-0.7,0.6-1.2,0.9-1.6,0.9c-0.5,0-0.8-0.3-0.8-1c0-0.4,0.1-1.1,0.2-2l0.3-2.1c0-0.1,0-0.2,0.1-0.5
			c0-0.1,0-0.3,0.1-0.5s0-0.5,0-0.6c0-0.5-0.2-0.8-0.5-0.8c-0.5,0-1.2,0.5-1.9,1.7c-0.7,1.1-1.1,2.2-1.3,3.2L398.9,127.6z"/>
		<path class="st17" d="M413.1,127.6l-1.3,0.5l0-0.3l0.1-0.7l0.1-0.6l0.4-4l0.1-0.4c0-0.2,0-0.5,0-0.7c0-0.6-0.2-0.8-0.5-0.8
			c-0.5,0-1.2,0.6-1.9,1.7c-0.7,1.1-1.1,2.2-1.2,3.2l-0.2,2.1l-1.3,0.5l0-0.3l0.1-0.7l0.1-0.6l0.5-4.1l0-0.5c0-0.4,0.1-0.7,0.1-0.9
			c0-0.4-0.1-0.6-0.3-0.6c-0.4,0-0.9,0.5-1.4,1.5c-0.1-0.1-0.2-0.2-0.2-0.3c0-0.3,0.3-0.8,1-1.4c0.6-0.6,1.1-0.9,1.5-0.9
			c0.5,0,0.8,0.3,0.8,1c0,0.2,0,0.4,0,0.7l-0.1,0.7l-0.1,0.6l-0.1,0.6l0.2-0.4c1.3-2.1,2.5-3.2,3.7-3.2c0.5,0,0.8,0.4,0.8,1.2
			c0,0.1,0,0.4-0.1,0.8l-0.1,0.8l-0.1,1.1c0.5-1.1,1.2-2.1,1.9-2.8s1.4-1.1,2-1.1c0.6,0,0.9,0.4,0.9,1.1c0,0.3,0,0.7-0.1,1.2
			l-0.5,3.3c-0.1,0.7-0.2,1.2-0.2,1.6c0,0.3,0.1,0.5,0.3,0.5c0.2,0,0.5-0.2,0.8-0.5s0.5-0.7,0.7-1.1c0.2,0.1,0.2,0.2,0.2,0.3
			c0,0.4-0.3,0.9-1,1.5c-0.7,0.6-1.2,0.9-1.6,0.9c-0.5,0-0.8-0.3-0.8-1c0-0.4,0.1-1.1,0.2-2l0.3-2.1c0-0.1,0-0.2,0.1-0.5
			c0-0.1,0-0.3,0.1-0.5s0-0.5,0-0.6c0-0.5-0.2-0.8-0.5-0.8c-0.5,0-1.2,0.5-1.9,1.7c-0.7,1.1-1.1,2.2-1.3,3.2L413.1,127.6z"/>
		<path class="st17" d="M421.3,128.3c-0.3-0.6-0.6-1-1-1.3l1.3-1.2c0.4,0.3,0.7,0.7,1,1.2L421.3,128.3z"/>
		<path class="st17" d="M425,128.3c-0.3-0.6-0.6-1-1-1.3l1.3-1.2c0.4,0.3,0.7,0.7,1,1.2L425,128.3z"/>
		<path class="st17" d="M428.7,128.3c-0.3-0.6-0.6-1-1-1.3l1.3-1.2c0.4,0.3,0.7,0.7,1,1.2L428.7,128.3z"/>
		<path class="st17" d="M432.5,128.3c-0.3-0.6-0.6-1-1-1.3l1.3-1.2c0.4,0.3,0.7,0.7,1,1.2L432.5,128.3z"/>
		<path class="st17" d="M366,149.8c0.1-0.7,0.1-1.8,0.1-3.2c0-2.8-0.1-4.8-0.4-6.1s-0.6-1.9-1.2-1.9c-0.4,0-0.7,0.2-1,0.5
			c-0.3,0.4-0.5,0.8-0.6,1.3c-0.2,0-0.4-0.2-0.4-0.3c0-0.6,0.3-1.2,0.9-1.9c0.6-0.7,1.1-1,1.7-1s1,0.2,1.2,0.6s0.5,1.2,0.7,2.3
			c0.3,1.6,0.5,3.5,0.5,5.7l0,0.6l1.3-2.5l0.6-1.1l0.8-1.6c0.5-0.9,0.8-1.7,0.9-2.2l1.4-1.3c0,0.4-0.1,0.8-0.1,1.1
			c0,1,0.2,2.6,0.6,4.8l0.1,0.6l0.2,0.9c0.1,0.6,0.2,1.3,0.4,2c0.2-0.3,0.3-0.5,0.3-0.6l0.7-1.5l0.9-1.8c0.7-1.5,1.1-2.6,1.1-3.5
			c0-0.6-0.2-1-0.7-1.3l1.3-1.4c0.6,0.4,0.9,0.9,0.9,1.4c0,0.7-0.6,2.3-1.9,4.7c-0.2,0.4-0.5,0.9-0.7,1.5l-0.4,0.8l-0.4,0.9
			l-0.5,1.1c0,0.1-0.1,0.3-0.3,0.7l-1.3,1.4l0-0.4c-0.1-1.2-0.3-2.7-0.7-4.4l-0.1-0.5l-0.1-0.8c-0.1-0.6-0.2-1-0.2-1.2l-0.2-1.2
			c0-0.1,0-0.3-0.1-0.6l-1.2,2.4l-0.5,1c-0.9,1.7-1.6,3.2-2,4.3L366,149.8z"/>
		<path class="st17" d="M381,144.6c0.7-1,1.4-1.9,2.3-2.6c0.8-0.7,1.5-1,2.1-1c0.6,0,0.9,0.4,0.9,1.2c0,0.2,0,0.6-0.1,1.1l-0.5,3.3
			c-0.1,0.7-0.1,1.2-0.1,1.6c0,0.3,0.1,0.5,0.2,0.5c0.4,0,0.9-0.5,1.5-1.6c0.1,0.1,0.2,0.2,0.2,0.3c0,0.4-0.3,0.9-1,1.5
			c-0.6,0.6-1.2,0.9-1.6,0.9c-0.5,0-0.7-0.3-0.7-1c0-0.5,0.1-1.1,0.2-2l0.3-2.1c0.1-0.7,0.1-1.2,0.1-1.7c0-0.4-0.2-0.7-0.5-0.7
			c-0.8,0-1.5,0.5-2.3,1.5s-1.2,2.1-1.4,3.3l-0.2,2.1l-1.3,0.5l0-0.2l0.1-0.7l0.1-0.6l0.9-7.7c0.2-1.8,0.9-3.4,2-4.7
			c1.1-1.3,2.4-1.9,3.8-1.9c0.3,0,0.6,0,0.9,0.1l-1.3,1.3c-0.3-0.1-0.6-0.1-1-0.1c-1.7,0-2.8,1.4-3.1,4.1L381,144.6z"/>
		<path class="st17" d="M392.6,146.9c0.2,0.1,0.2,0.2,0.2,0.3c0,0.2-0.2,0.6-0.8,1.2c-0.7,0.8-1.3,1.3-1.9,1.3
			c-0.4,0-0.6-0.3-0.6-0.9c0-0.2,0.1-1,0.3-2.2l0.3-2.4l0.1-0.6l0.1-0.5c0-0.2,0-0.4,0-0.5c0-0.3-0.1-0.4-0.2-0.4
			c-0.5,0-0.9,0.5-1.5,1.5c-0.1-0.1-0.2-0.2-0.2-0.3c0-0.4,0.3-0.8,1-1.4s1.2-0.9,1.6-0.9c0.4,0,0.7,0.3,0.7,0.9
			c0,0.1,0,0.4-0.1,0.7l-0.1,0.6c0,0.1,0,0.3-0.1,0.7l-0.4,2.5l-0.1,0.6c-0.1,0.6-0.1,0.9-0.1,1.1c0,0.2,0.1,0.4,0.2,0.4
			C391.5,148.6,392,148,392.6,146.9z M390.8,139.9l0.7-1.8c0.7-0.3,1.2-0.6,1.6-1.1c0.1,0.1,0.1,0.2,0.1,0.2
			C393.3,138.1,392.4,138.9,390.8,139.9z"/>
		<path class="st17" d="M399.8,141.3l-1,1.2c-0.5-0.2-0.9-0.3-1.3-0.3c-0.8,0-1.4,0.3-1.8,1c-0.4,0.7-0.7,1.5-0.7,2.7
			c0,0.8,0.2,1.4,0.5,1.9s0.7,0.7,1.2,0.7c0.9,0,1.6-0.6,2.1-1.7c0.1,0.1,0.2,0.3,0.2,0.4c0,0.5-0.4,1-1.1,1.6s-1.5,0.9-2.1,0.9
			c-0.6,0-1.1-0.2-1.5-0.7s-0.6-1.1-0.6-1.9c0-1.5,0.5-2.9,1.5-4.1c1-1.2,2.2-1.9,3.4-1.9C399,141.1,399.4,141.2,399.8,141.3z"/>
		<path class="st17" d="M402.8,144.6c0.7-1,1.4-1.9,2.3-2.6c0.8-0.7,1.5-1,2.1-1c0.6,0,0.9,0.4,0.9,1.2c0,0.2,0,0.6-0.1,1.1
			l-0.5,3.3c-0.1,0.7-0.1,1.2-0.1,1.6c0,0.3,0.1,0.5,0.2,0.5c0.4,0,0.9-0.5,1.5-1.6c0.1,0.1,0.2,0.2,0.2,0.3c0,0.4-0.3,0.9-1,1.5
			c-0.6,0.6-1.2,0.9-1.6,0.9c-0.5,0-0.7-0.3-0.7-1c0-0.5,0.1-1.1,0.2-2l0.3-2.1c0.1-0.7,0.1-1.2,0.1-1.7c0-0.4-0.2-0.7-0.5-0.7
			c-0.8,0-1.5,0.5-2.3,1.5s-1.2,2.1-1.4,3.3l-0.2,2.1l-1.3,0.5l0-0.2l0.1-0.7l0.1-0.6l0.9-7.7c0.2-1.8,0.9-3.4,2-4.7
			c1.1-1.3,2.4-1.9,3.8-1.9c0.3,0,0.6,0,0.9,0.1l-1.3,1.3c-0.3-0.1-0.6-0.1-1-0.1c-1.7,0-2.8,1.4-3.1,4.1L402.8,144.6z"/>
		<path class="st17" d="M421,141.2l0.1-0.8c0.2-1.9,0.9-3.4,1.9-4.7c1.1-1.2,2.3-1.9,3.7-1.9c0.3,0,0.6,0,0.9,0.1l-1.2,1.3
			c-0.3-0.1-0.6-0.1-1-0.1c-0.9,0-1.5,0.3-2,0.9s-0.7,1.7-0.9,3.1l-0.8,7.3l-0.1,0.6c0,0.5-0.1,0.8-0.1,1.1c0,0.3,0.1,0.4,0.2,0.4
			c0.5,0,1-0.6,1.5-1.6c0.2,0.1,0.2,0.2,0.2,0.3c0,0.2-0.2,0.6-0.7,1.2c-0.7,0.8-1.3,1.3-1.9,1.3c-0.5,0-0.7-0.3-0.7-0.9
			c0-0.2,0-0.7,0.1-1.4l0.1-0.8l0.1-0.6c-0.4,0.9-1,1.7-1.9,2.5c-0.9,0.8-1.6,1.2-2.2,1.2c-0.8,0-1.2-0.6-1.2-1.9
			c0-1.7,0.6-3.2,1.7-4.6c1.1-1.3,2.4-2,3.9-2C420.7,141.2,420.8,141.2,421,141.2z M420.8,142.5c-0.5-0.3-0.9-0.4-1.4-0.4
			c-0.9,0-1.6,0.5-2.1,1.5c-0.6,1-0.8,2.2-0.8,3.8c0,0.8,0.2,1.1,0.7,1.1c0.5,0,1.2-0.4,1.9-1.2c0.9-1,1.5-2.3,1.7-3.8L420.8,142.5z
			"/>
		<path class="st17" d="M427.2,144.8c1.3-2.5,2.6-3.7,3.8-3.7c0.3,0,0.7,0.1,1,0.2l-1.2,1.3c-0.2-0.1-0.4-0.2-0.7-0.2
			c-0.6,0-1.2,0.5-1.9,1.5c-0.7,1-1.1,2-1.2,3.1l-0.2,2.1l-1.3,0.4l0-0.3l0.1-0.6l0.1-0.6l0.5-4.2l0-0.5c0-0.3,0.1-0.6,0.1-0.8
			c0-0.4-0.1-0.5-0.3-0.5c-0.5,0-0.9,0.5-1.4,1.5c-0.1-0.1-0.2-0.2-0.2-0.3c0-0.4,0.3-0.8,1-1.4s1.1-0.9,1.5-0.9
			c0.5,0,0.8,0.3,0.8,1c0,0.2,0,0.4,0,0.6l-0.1,0.6l-0.1,0.7L427.2,144.8z"/>
		<path class="st17" d="M437.2,146.7c0.1,0.1,0.2,0.2,0.2,0.4c0,0.2-0.2,0.5-0.6,0.9c-1,1.2-2,1.7-3,1.7c-0.6,0-1.1-0.2-1.5-0.7
			s-0.6-1.1-0.6-1.8c0-1.3,0.5-2.7,1.5-4.1c1-1.4,2-2.1,3-2.1c0.7,0,1.1,0.4,1.1,1.1c0,0.9-0.4,1.7-1.2,2.5c-0.8,0.8-1.9,1.4-3,1.7
			c0.1,1.4,0.7,2.1,1.7,2.1C435.8,148.6,436.6,148,437.2,146.7z M433.1,145.4c0.2,0.1,0.3,0.1,0.5,0.1c0.7,0,1.4-0.2,1.9-0.7
			s0.8-1,0.8-1.6c0-0.7-0.4-1-1-1c-0.5,0-1,0.3-1.4,0.9C433.5,143.7,433.2,144.5,433.1,145.4z"/>
		<path class="st17" d="M438,149.2l1.2-1c0.5,0.5,1,0.7,1.7,0.7c0.9,0,1.3-0.4,1.3-1.2c0-0.4-0.4-1.1-1.2-1.9l-0.5-0.5
			c-0.7-0.8-1.1-1.4-1.1-1.9c0-0.7,0.3-1.2,0.9-1.7c0.6-0.5,1.3-0.7,2.2-0.7c0.5,0,1,0.1,1.5,0.3l-1,1c-0.5-0.3-0.9-0.5-1.5-0.5
			c-0.6,0-1,0.3-1,0.8c0,0.4,0.4,0.9,1.1,1.7l0.5,0.6c0.8,0.8,1.2,1.5,1.2,2c0,0.7-0.4,1.4-1.1,2c-0.7,0.6-1.5,0.9-2.5,0.9
			C439.2,149.7,438.5,149.6,438,149.2z"/>
		<path class="st17" d="M444.4,149.2l1.2-1c0.5,0.5,1,0.7,1.7,0.7c0.9,0,1.3-0.4,1.3-1.2c0-0.4-0.4-1.1-1.2-1.9l-0.5-0.5
			c-0.7-0.8-1.1-1.4-1.1-1.9c0-0.7,0.3-1.2,0.9-1.7c0.6-0.5,1.3-0.7,2.2-0.7c0.5,0,1,0.1,1.5,0.3l-1.1,1c-0.5-0.3-0.9-0.5-1.5-0.5
			c-0.6,0-1,0.3-1,0.8c0,0.4,0.4,0.9,1.1,1.7l0.5,0.6c0.8,0.8,1.2,1.5,1.2,2c0,0.7-0.4,1.4-1.1,2c-0.7,0.6-1.5,0.9-2.5,0.9
			C445.6,149.7,444.9,149.6,444.4,149.2z"/>
		<path class="st17" d="M362,170.8l1.2-1c0.5,0.5,1,0.7,1.7,0.7c0.9,0,1.3-0.4,1.3-1.2c0-0.4-0.4-1.1-1.2-1.9l-0.5-0.5
			c-0.7-0.8-1.1-1.4-1.1-1.9c0-0.7,0.3-1.2,0.9-1.7c0.6-0.5,1.3-0.7,2.2-0.7c0.5,0,1,0.1,1.5,0.3l-1,1c-0.5-0.3-0.9-0.5-1.5-0.5
			c-0.6,0-1,0.3-1,0.8c0,0.4,0.4,0.9,1.1,1.7l0.5,0.6c0.8,0.8,1.2,1.5,1.2,2c0,0.7-0.4,1.4-1.1,2c-0.7,0.6-1.5,0.8-2.5,0.8
			C363.2,171.3,362.6,171.2,362,170.8z"/>
		<path class="st17" d="M371.3,166.2c0.7-1,1.4-1.9,2.3-2.6s1.5-1,2.1-1c0.6,0,0.9,0.4,0.9,1.2c0,0.2,0,0.6-0.1,1.1l-0.5,3.3
			c-0.1,0.7-0.1,1.2-0.1,1.6c0,0.3,0.1,0.5,0.2,0.5c0.4,0,0.9-0.5,1.5-1.6c0.1,0.1,0.2,0.2,0.2,0.3c0,0.4-0.3,0.9-1,1.5
			c-0.6,0.6-1.2,0.9-1.6,0.9c-0.5,0-0.7-0.3-0.7-1c0-0.5,0.1-1.2,0.2-2l0.3-2.1c0.1-0.7,0.1-1.2,0.1-1.7c0-0.4-0.2-0.7-0.5-0.7
			c-0.8,0-1.5,0.5-2.3,1.5s-1.2,2.1-1.4,3.3l-0.2,2.1l-1.3,0.5l0-0.2l0.1-0.6l0.1-0.6l0.9-7.7c0.2-1.8,0.9-3.4,2-4.7
			c1.1-1.3,2.4-1.9,3.8-1.9c0.3,0,0.6,0,0.9,0.1l-1.3,1.3c-0.3-0.1-0.6-0.2-1-0.2c-1.7,0-2.8,1.4-3.1,4.1L371.3,166.2z"/>
		<path class="st17" d="M380.5,171.3c-1.3,0-2-0.9-2-2.6c0-1.4,0.5-2.8,1.5-4.1c1-1.3,2.1-2,3.2-2c1.3,0,2,0.9,2,2.6
			c0,1.4-0.5,2.8-1.5,4.1S381.6,171.3,380.5,171.3z M381.6,170.3c0.7,0,1.2-0.4,1.7-1.1c0.5-0.8,0.7-1.7,0.7-2.8
			c0-1.8-0.6-2.7-1.7-2.7c-0.7,0-1.2,0.4-1.7,1.1c-0.5,0.8-0.7,1.7-0.7,2.8C379.9,169.4,380.4,170.3,381.6,170.3z"/>
		<path class="st17" d="M392.6,167.6c-0.7,1-1.4,1.9-2.3,2.6c-0.8,0.7-1.5,1.1-2,1.1c-0.6,0-0.9-0.4-0.9-1.2c0-0.3,0-0.8,0.1-1.4
			l0.3-2.9c0,0,0-0.2,0-0.5l0-0.6c0-0.2,0-0.3,0-0.5c0-0.3-0.1-0.5-0.3-0.5c-0.5,0-0.9,0.5-1.4,1.5c-0.1-0.1-0.2-0.2-0.2-0.3
			c0-0.4,0.3-0.8,1-1.4c0.6-0.6,1.2-0.9,1.5-0.9c0.5,0,0.7,0.3,0.7,1c0,0.2,0,0.3,0,0.6l-0.1,0.7l-0.1,0.7l-0.3,2.5
			c0,0.4-0.1,0.9-0.1,1.3c0,0.4,0.1,0.6,0.5,0.6c0.7,0,1.4-0.5,2.2-1.6s1.3-2.2,1.5-3.2l0.3-2.1l1.4-0.5c-0.2,0.7-0.3,1.3-0.4,1.8
			l-0.5,3.7c0,0.2,0,0.4-0.1,0.6l-0.1,0.5c0,0.3,0,0.5,0,0.6c0,0.2,0.1,0.4,0.2,0.4c0.5,0,1-0.6,1.5-1.6c0.2,0.1,0.2,0.2,0.2,0.3
			c0,0.2-0.2,0.6-0.8,1.2c-0.7,0.8-1.3,1.3-1.9,1.3c-0.4,0-0.6-0.3-0.6-0.9c0-0.2,0-0.4,0.1-0.7l0.1-0.7c0-0.4,0.1-0.6,0.1-0.8
			L392.6,167.6z"/>
		<path class="st17" d="M399.9,168.5c0.2,0.1,0.2,0.2,0.2,0.3c0,0.4-0.3,0.9-0.9,1.6c-0.6,0.6-1.2,0.9-1.6,0.9
			c-0.5,0-0.7-0.3-0.7-1.1c0-0.4,0-0.9,0.1-1.3l0.1-0.8l0.7-6.1c0.2-1.9,0.9-3.4,1.9-4.7s2.3-1.9,3.7-1.9c0.3,0,0.6,0,0.9,0.1
			l-1.2,1.3c-0.3-0.1-0.6-0.1-1-0.1c-0.9,0-1.5,0.3-2,0.9c-0.4,0.6-0.7,1.7-0.9,3.1l-0.8,7.4c-0.1,0.6-0.1,1-0.1,1.2
			c0,0.5,0.1,0.8,0.3,0.8c0.2,0,0.5-0.2,0.8-0.5C399.6,169.3,399.8,168.9,399.9,168.5z"/>
		<path class="st17" d="M407,162.8l0.1-0.8c0.2-1.9,0.9-3.4,1.9-4.7c1.1-1.2,2.3-1.9,3.7-1.9c0.3,0,0.6,0,0.9,0.1l-1.2,1.3
			c-0.3-0.1-0.6-0.1-1-0.1c-0.9,0-1.5,0.3-2,0.9s-0.7,1.7-0.9,3.1l-0.8,7.3l-0.1,0.6c0,0.5-0.1,0.9-0.1,1.1c0,0.3,0.1,0.4,0.2,0.4
			c0.5,0,1-0.6,1.5-1.6c0.2,0.1,0.2,0.2,0.2,0.3c0,0.2-0.2,0.6-0.7,1.2c-0.7,0.8-1.3,1.3-1.9,1.3c-0.5,0-0.7-0.3-0.7-0.9
			c0-0.2,0-0.7,0.1-1.4l0.1-0.8l0.1-0.7c-0.4,0.9-1,1.7-1.9,2.5c-0.9,0.8-1.6,1.2-2.2,1.2c-0.8,0-1.2-0.7-1.2-1.9
			c0-1.7,0.6-3.2,1.7-4.6c1.1-1.4,2.4-2,3.9-2C406.8,162.8,406.9,162.8,407,162.8z M406.9,164.1c-0.5-0.3-0.9-0.4-1.4-0.4
			c-0.9,0-1.6,0.5-2.1,1.5c-0.6,1-0.8,2.2-0.8,3.8c0,0.8,0.2,1.1,0.7,1.1c0.5,0,1.2-0.4,1.9-1.2c0.9-1,1.5-2.3,1.7-3.8L406.9,164.1z
			"/>
		<path class="st17" d="M417.1,164.3l-1.4,1.4c-0.1-0.5-0.2-0.9-0.2-1.4c0-1.5,0.6-2.7,1.7-3.6c1.1-0.9,2.6-1.4,4.5-1.4h0.7
			c-0.3,1.3-0.4,2.2-0.5,2.7l-0.5,4.3l-0.1,1c-0.1,0.8-0.3,1.4-0.5,1.8c-0.3,0.4-0.8,0.7-1.5,1.1l2.5,0.1l-1,1l-4.3-0.2l1.1-1.1
			l1,0.1c0.7-0.4,1.1-1.4,1.3-2.8l0.1-0.8l0.7-6.2h-0.3c-2.4,0-3.7,0.8-3.7,2.4C416.7,163.3,416.9,163.8,417.1,164.3z"/>
		<path class="st17" d="M430.5,171.3c0-1.4-0.1-2.7-0.3-3.9l-0.3-1.9c-0.2-1.1-0.5-1.6-0.8-1.6c-0.5,0-0.8,0.4-0.9,1.3
			c-0.2-0.1-0.3-0.2-0.3-0.3c0-0.4,0.2-0.9,0.6-1.4c0.4-0.5,0.8-0.8,1.2-0.8c0.5,0,0.9,0.4,1.2,1.3c0.3,0.8,0.5,2.3,0.8,4.4l0,0.5
			c1-1.9,1.8-3.6,2.3-5.2l1-1c0.1,0.8,0.1,1.4,0.2,1.8l0.2,1.4l0.1,1l0.4,2.2l0.2-0.3c1.4-2.2,2-3.6,2-4.3c0-0.3-0.2-0.6-0.5-0.9
			l1.1-1c0.4,0.2,0.6,0.6,0.6,1c0,0.5-0.3,1.3-1,2.4l-0.5,0.9l-0.7,1.2c-0.5,0.8-0.8,1.6-1,2.2l-1,1.1c-0.1-1.1-0.2-2.2-0.4-3.3
			l-0.1-0.8l-0.4-2.1l-0.4,0.8c-0.8,1.4-1.4,2.8-1.9,4.2L430.5,171.3z"/>
		<path class="st17" d="M445.2,168.3c0.1,0.1,0.2,0.2,0.2,0.3c0,0.2-0.2,0.5-0.6,0.9c-1,1.2-2,1.7-3,1.7c-0.6,0-1.1-0.2-1.5-0.7
			s-0.6-1.1-0.6-1.8c0-1.3,0.5-2.7,1.5-4.1c1-1.4,2-2.1,3-2.1c0.7,0,1.1,0.4,1.1,1.2c0,0.9-0.4,1.7-1.2,2.5c-0.8,0.8-1.9,1.4-3,1.7
			c0.1,1.4,0.7,2.1,1.7,2.1C443.8,170.2,444.6,169.6,445.2,168.3z M441.2,167c0.2,0.1,0.3,0.1,0.5,0.1c0.7,0,1.4-0.2,1.9-0.7
			s0.8-1,0.8-1.6c0-0.7-0.4-1-1-1c-0.5,0-1,0.3-1.4,0.9C441.6,165.3,441.3,166.1,441.2,167z"/>
		<path class="st17" d="M452,167.6c-0.7,1.1-1.4,2-2.2,2.7s-1.5,1-2.1,1c-0.8,0-1.2-0.7-1.2-1.9c0-1.8,0.6-3.3,1.8-4.6
			c1.2-1.3,2.5-2,4.1-2c0.6,0,1.1,0.1,1.6,0.2c0,0.1,0,0.2,0,0.2l-0.1,0.5c-0.1,0.3-0.1,0.5-0.1,0.6l-0.6,3.9l-0.1,0.6
			c-0.1,0.6-0.1,0.9-0.1,1.1c0,0.2,0.1,0.4,0.2,0.4c0.5,0,1-0.6,1.5-1.6c0.2,0.1,0.2,0.2,0.2,0.3c0,0.2-0.2,0.6-0.8,1.2
			c-0.7,0.8-1.3,1.3-1.9,1.3c-0.4,0-0.6-0.3-0.6-0.9c0-0.2,0-0.4,0.1-0.7l0.1-0.7l0.1-0.8L452,167.6z M452.5,164.1
			c-0.5-0.3-1.1-0.4-1.6-0.4c-0.8,0-1.5,0.5-2.1,1.5s-0.8,2.2-0.8,3.7c0,0.8,0.2,1.1,0.7,1.1c0.5,0,1.1-0.4,1.9-1.2
			c1-1.1,1.6-2.3,1.8-3.8L452.5,164.1z"/>
		<path class="st17" d="M458.7,166.4c1.3-2.5,2.6-3.7,3.8-3.7c0.3,0,0.7,0.1,1,0.2l-1.2,1.4c-0.2-0.1-0.4-0.2-0.7-0.2
			c-0.6,0-1.2,0.5-1.9,1.5s-1.1,2-1.2,3.1l-0.2,2.1l-1.3,0.4l0-0.3l0.1-0.6l0.1-0.6l0.5-4.2l0-0.5c0-0.4,0.1-0.6,0.1-0.8
			c0-0.4-0.1-0.5-0.3-0.5c-0.5,0-0.9,0.5-1.4,1.5c-0.1-0.1-0.2-0.2-0.2-0.3c0-0.4,0.3-0.8,1-1.4s1.1-0.9,1.5-0.9
			c0.5,0,0.8,0.3,0.8,1c0,0.2,0,0.4,0,0.6l-0.1,0.6l-0.1,0.7L458.7,166.4z"/>
		<path class="st17" d="M464.7,171.4c-0.3-0.6-0.6-1-1-1.2l1.3-1.2c0.4,0.3,0.7,0.7,1,1.2L464.7,171.4z M465.9,166.5l-1.5,1.3
			c-0.1-0.2-0.1-0.5-0.1-0.8c0-1,0.5-2,1.6-2.9l0.5-0.4l0.2-0.2c1-0.9,1.5-1.7,1.5-2.5c0-1.2-0.6-1.8-1.9-1.8
			c-0.5,0-1.1,0.2-1.8,0.6c-0.1-0.1-0.1-0.2-0.1-0.2c0-0.2,0.3-0.5,1-0.7c0.7-0.2,1.3-0.3,2-0.3c1.7,0,2.6,0.7,2.6,2
			c0,0.9-0.7,1.8-2,2.6c-0.4,0.3-0.6,0.4-0.8,0.5l-0.2,0.2c-0.6,0.6-1,1.2-1,2C465.8,166.1,465.9,166.3,465.9,166.5z"/>
	</g>
</g>
</svg>
